<mxfile host="65bd71144e">
    <diagram id="HLARVTAp1Q_7n91L8Ks7" name="Page-1">
        <mxGraphModel dx="1626" dy="1876" grid="1" gridSize="10" guides="1" tooltips="1" connect="1" arrows="1" fold="1" page="1" pageScale="1" pageWidth="850" pageHeight="1100" math="0" shadow="0">
            <root>
                <mxCell id="0"/>
                <mxCell id="1" parent="0"/>
                <UserObject label="" mermaidData="{&#10;  &quot;data&quot;: &quot;%%{ init : { \&quot;theme\&quot; : \&quot;default\&quot;, \&quot;themeVariables\&quot;: { \&quot;classText\&quot;: \&quot;#000000\&quot;, \&quot;classBackground\&quot;: \&quot;#FFFFFF\&quot;, \&quot;classBorder\&quot;: \&quot;#000000\&quot; } } }%%\nclassDiagram\n    %% Define the classes with detailed attributes and methods %%\n    class LivestockHealthProduct {\n        +String ProductID\n        +String Name\n        +String Type\n        +String Usage\n        +String Dosage\n        +Date ExpirationDate\n        +String Manufacturer\n        +String StorageConditions\n        +validateProduct(): boolean\n        +updateProductInfo(): void\n        +getProductDetails(): String\n    }\n\n    class ResearchAndDevelopment {\n        +String ProjectID\n        +String ProjectName\n        +Date StartDate\n        +Date EndDate\n        +String Status\n        +initiateResearch(projectName: String, startDate: Date): void\n        +evaluateResults(projectID: String): String\n        +developProduct(productName: String): LivestockHealthProduct\n        +trackProgress(projectID: String): String\n    }\n\n    class CustomerSupport {\n        +String SupportTicketID\n        +String CustomerID\n        +String IssueDescription\n        +String Status\n        +Date CreatedDate\n        +Date ResolvedDate\n        +logIssue(customerID: String, issueDescription: String): void\n        +resolveIssue(ticketID: String): void\n        +trackIssue(ticketID: String): String\n    }\n\n    class Sales {\n        +String SaleID\n        +String ProductID\n        +String CustomerID\n        +Date SaleDate\n        +int Quantity\n        +String SalesRegion\n        +processSale(productID: String, customerID: String, quantity: int): void\n        +trackSales(salesID: String): String\n        +generateReport(startDate: Date, endDate: Date): String\n    }\n\n    class Compliance {\n        +String RegulationID\n        +String RegulationName\n        +String Description\n        +String ComplianceStatus\n        +String ReportURL\n        +checkCompliance(productID: String): boolean\n        +submitReports(reportURL: String): void\n        +updateComplianceStatus(status: String): void\n    }\n\n    class InventoryManagement {\n        +String ProductID\n        +int StockLevel\n        +int ReorderLevel\n        +Date LastUpdated\n        +updateStock(productID: String, quantity: int): void\n        +reorderProduct(productID: String, quantity: int): void\n        +checkStockLevel(productID: String): int\n    }\n\n    %% Define the actors %%\n    class Veterinarians {\n        +String VeterinarianID\n        +String Name\n        +String Specialization\n        +provideTreatment(livestockID: String, productID: String): void\n    }\n\n    class Farmers {\n        +String FarmerID\n        +String Name\n        +String FarmLocation\n        +applyProduct(livestockID: String, productID: String): void\n    }\n\n    class Researchers {\n        +String ResearcherID\n        +String Name\n        +String FieldOfStudy\n        +conductExperiment(experimentID: String): String\n    }\n\n    class SalesRepresentatives {\n        +String RepID\n        +String Name\n        +String Territory\n        +manageClient(clientID: String): void\n    }\n\n    class RegulatoryAgencies {\n        +String AgencyID\n        +String Name\n        +String ComplianceArea\n        +auditProduct(productID: String): void\n    }\n\n    %% Define the relationships %%\n    LivestockHealthProduct \&quot;1\&quot; -- \&quot;0..*\&quot; Veterinarians : uses\n    LivestockHealthProduct \&quot;1\&quot; -- \&quot;0..*\&quot; Farmers : uses\n    ResearchAndDevelopment \&quot;1\&quot; -- \&quot;0..*\&quot; Sales : develops\n    ResearchAndDevelopment \&quot;1\&quot; -- \&quot;0..*\&quot; Compliance : ensures compliance\n    CustomerSupport \&quot;0..*\&quot; -- \&quot;0..*\&quot; Veterinarians : supports\n    CustomerSupport \&quot;0..*\&quot; -- \&quot;0..*\&quot; Farmers : supports\n    Sales \&quot;1\&quot; -- \&quot;1\&quot; InventoryManagement : updates\n    Compliance \&quot;1\&quot; -- \&quot;0..*\&quot; LivestockHealthProduct : regulates\n    Sales \&quot;0..*\&quot; -- \&quot;1\&quot; Veterinarians : interfaces\n    Sales \&quot;0..*\&quot; -- \&quot;1\&quot; Farmers : interfaces\n    Researchers \&quot;0..*\&quot; -- \&quot;1\&quot; ResearchAndDevelopment : contributes\n    RegulatoryAgencies \&quot;1\&quot; -- \&quot;0..*\&quot; Compliance : audits\n&quot;,&#10;  &quot;config&quot;: {&#10;    &quot;theme&quot;: &quot;neutral&quot;,&#10;    &quot;arrowMarkerAbsolute&quot;: false,&#10;    &quot;flowchart&quot;: {&#10;      &quot;htmlLabels&quot;: false&#10;    },&#10;    &quot;sequence&quot;: {&#10;      &quot;diagramMarginX&quot;: 50,&#10;      &quot;diagramMarginY&quot;: 10,&#10;      &quot;actorMargin&quot;: 50,&#10;      &quot;width&quot;: 150,&#10;      &quot;height&quot;: 65,&#10;      &quot;boxMargin&quot;: 10,&#10;      &quot;boxTextMargin&quot;: 5,&#10;      &quot;noteMargin&quot;: 10,&#10;      &quot;messageMargin&quot;: 35,&#10;      &quot;mirrorActors&quot;: true,&#10;      &quot;bottomMarginAdj&quot;: 1,&#10;      &quot;useMaxWidth&quot;: true,&#10;      &quot;rightAngles&quot;: false,&#10;      &quot;showSequenceNumbers&quot;: false&#10;    },&#10;    &quot;gantt&quot;: {&#10;      &quot;titleTopMargin&quot;: 25,&#10;      &quot;barHeight&quot;: 20,&#10;      &quot;barGap&quot;: 4,&#10;      &quot;topPadding&quot;: 50,&#10;      &quot;leftPadding&quot;: 75,&#10;      &quot;gridLineStartPadding&quot;: 35,&#10;      &quot;fontSize&quot;: 11,&#10;      &quot;fontFamily&quot;: &quot;\&quot;Open-Sans\&quot;, \&quot;sans-serif\&quot;&quot;,&#10;      &quot;numberSectionStyles&quot;: 4,&#10;      &quot;axisFormat&quot;: &quot;%Y-%m-%d&quot;&#10;    }&#10;  }&#10;}" id="2">
                    <mxCell style="shape=image;noLabel=1;verticalAlign=top;imageAspect=1;image=data:image/svg+xml,PHN2ZyBhcmlhLWxhYmVsbGVkYnk9ImNoYXJ0LXRpdGxlLWdlTWVybWFpZE91dHB1dC0xNzI1OTkxODY3NDkzIGNoYXJ0LWRlc2MtZ2VNZXJtYWlkT3V0cHV0LTE3MjU5OTE4Njc0OTMiIHJvbGU9ImltZyIgdmlld0JveD0iMCAwIDE0NjEuNDU3MDMxMjUgMTQ3OSIgc3R5bGU9Im1heC13aWR0aDogMTQ2MS40NTcwMzEyNXB4OyIgaGVpZ2h0PSIxNDc5IiB4bWxuczp4bGluaz0iaHR0cDovL3d3dy53My5vcmcvMTk5OS94bGluayIgeG1sbnM9Imh0dHA6Ly93d3cudzMub3JnLzIwMDAvc3ZnIiB3aWR0aD0iMTAwJSIgaWQ9ImdlTWVybWFpZE91dHB1dC0xNzI1OTkxODY3NDkzIj48dGl0bGUgaWQ9ImNoYXJ0LXRpdGxlLWdlTWVybWFpZE91dHB1dC0xNzI1OTkxODY3NDkzIj48L3RpdGxlPjxkZXNjIGlkPSJjaGFydC1kZXNjLWdlTWVybWFpZE91dHB1dC0xNzI1OTkxODY3NDkzIj48L2Rlc2M+PHN0eWxlPiNnZU1lcm1haWRPdXRwdXQtMTcyNTk5MTg2NzQ5MyB7Zm9udC1mYW1pbHk6InRyZWJ1Y2hldCBtcyIsdmVyZGFuYSxhcmlhbCxzYW5zLXNlcmlmO2ZvbnQtc2l6ZToxNnB4O2ZpbGw6IzMzMzt9I2dlTWVybWFpZE91dHB1dC0xNzI1OTkxODY3NDkzIC5lcnJvci1pY29ue2ZpbGw6IzU1MjIyMjt9I2dlTWVybWFpZE91dHB1dC0xNzI1OTkxODY3NDkzIC5lcnJvci10ZXh0e2ZpbGw6IzU1MjIyMjtzdHJva2U6IzU1MjIyMjt9I2dlTWVybWFpZE91dHB1dC0xNzI1OTkxODY3NDkzIC5lZGdlLXRoaWNrbmVzcy1ub3JtYWx7c3Ryb2tlLXdpZHRoOjJweDt9I2dlTWVybWFpZE91dHB1dC0xNzI1OTkxODY3NDkzIC5lZGdlLXRoaWNrbmVzcy10aGlja3tzdHJva2Utd2lkdGg6My41cHg7fSNnZU1lcm1haWRPdXRwdXQtMTcyNTk5MTg2NzQ5MyAuZWRnZS1wYXR0ZXJuLXNvbGlke3N0cm9rZS1kYXNoYXJyYXk6MDt9I2dlTWVybWFpZE91dHB1dC0xNzI1OTkxODY3NDkzIC5lZGdlLXBhdHRlcm4tZGFzaGVke3N0cm9rZS1kYXNoYXJyYXk6Mzt9I2dlTWVybWFpZE91dHB1dC0xNzI1OTkxODY3NDkzIC5lZGdlLXBhdHRlcm4tZG90dGVke3N0cm9rZS1kYXNoYXJyYXk6Mjt9I2dlTWVybWFpZE91dHB1dC0xNzI1OTkxODY3NDkzIC5tYXJrZXJ7ZmlsbDojMzMzMzMzO3N0cm9rZTojMzMzMzMzO30jZ2VNZXJtYWlkT3V0cHV0LTE3MjU5OTE4Njc0OTMgLm1hcmtlci5jcm9zc3tzdHJva2U6IzMzMzMzMzt9I2dlTWVybWFpZE91dHB1dC0xNzI1OTkxODY3NDkzIHN2Z3tmb250LWZhbWlseToidHJlYnVjaGV0IG1zIix2ZXJkYW5hLGFyaWFsLHNhbnMtc2VyaWY7Zm9udC1zaXplOjE2cHg7fSNnZU1lcm1haWRPdXRwdXQtMTcyNTk5MTg2NzQ5MyBnLmNsYXNzR3JvdXAgdGV4dHtmaWxsOiM5MzcwREI7ZmlsbDojMDAwMDAwO3N0cm9rZTpub25lO2ZvbnQtZmFtaWx5OiJ0cmVidWNoZXQgbXMiLHZlcmRhbmEsYXJpYWwsc2Fucy1zZXJpZjtmb250LXNpemU6MTBweDt9I2dlTWVybWFpZE91dHB1dC0xNzI1OTkxODY3NDkzIGcuY2xhc3NHcm91cCB0ZXh0IC50aXRsZXtmb250LXdlaWdodDpib2xkZXI7fSNnZU1lcm1haWRPdXRwdXQtMTcyNTk5MTg2NzQ5MyAubm9kZUxhYmVsLCNnZU1lcm1haWRPdXRwdXQtMTcyNTk5MTg2NzQ5MyAuZWRnZUxhYmVse2NvbG9yOiMwMDAwMDA7fSNnZU1lcm1haWRPdXRwdXQtMTcyNTk5MTg2NzQ5MyAuZWRnZUxhYmVsIC5sYWJlbCByZWN0e2ZpbGw6I0VDRUNGRjt9I2dlTWVybWFpZE91dHB1dC0xNzI1OTkxODY3NDkzIC5sYWJlbCB0ZXh0e2ZpbGw6IzAwMDAwMDt9I2dlTWVybWFpZE91dHB1dC0xNzI1OTkxODY3NDkzIC5lZGdlTGFiZWwgLmxhYmVsIHNwYW57YmFja2dyb3VuZDojRUNFQ0ZGO30jZ2VNZXJtYWlkT3V0cHV0LTE3MjU5OTE4Njc0OTMgLmNsYXNzVGl0bGV7Zm9udC13ZWlnaHQ6Ym9sZGVyO30jZ2VNZXJtYWlkT3V0cHV0LTE3MjU5OTE4Njc0OTMgLm5vZGUgcmVjdCwjZ2VNZXJtYWlkT3V0cHV0LTE3MjU5OTE4Njc0OTMgLm5vZGUgY2lyY2xlLCNnZU1lcm1haWRPdXRwdXQtMTcyNTk5MTg2NzQ5MyAubm9kZSBlbGxpcHNlLCNnZU1lcm1haWRPdXRwdXQtMTcyNTk5MTg2NzQ5MyAubm9kZSBwb2x5Z29uLCNnZU1lcm1haWRPdXRwdXQtMTcyNTk5MTg2NzQ5MyAubm9kZSBwYXRoe2ZpbGw6I0VDRUNGRjtzdHJva2U6IzkzNzBEQjtzdHJva2Utd2lkdGg6MXB4O30jZ2VNZXJtYWlkT3V0cHV0LTE3MjU5OTE4Njc0OTMgLmRpdmlkZXJ7c3Ryb2tlOiM5MzcwREI7c3Ryb2tlOjE7fSNnZU1lcm1haWRPdXRwdXQtMTcyNTk5MTg2NzQ5MyBnLmNsaWNrYWJsZXtjdXJzb3I6cG9pbnRlcjt9I2dlTWVybWFpZE91dHB1dC0xNzI1OTkxODY3NDkzIGcuY2xhc3NHcm91cCByZWN0e2ZpbGw6I0VDRUNGRjtzdHJva2U6IzkzNzBEQjt9I2dlTWVybWFpZE91dHB1dC0xNzI1OTkxODY3NDkzIGcuY2xhc3NHcm91cCBsaW5le3N0cm9rZTojOTM3MERCO3N0cm9rZS13aWR0aDoxO30jZ2VNZXJtYWlkT3V0cHV0LTE3MjU5OTE4Njc0OTMgLmNsYXNzTGFiZWwgLmJveHtzdHJva2U6bm9uZTtzdHJva2Utd2lkdGg6MDtmaWxsOiNFQ0VDRkY7b3BhY2l0eTowLjU7fSNnZU1lcm1haWRPdXRwdXQtMTcyNTk5MTg2NzQ5MyAuY2xhc3NMYWJlbCAubGFiZWx7ZmlsbDojOTM3MERCO2ZvbnQtc2l6ZToxMHB4O30jZ2VNZXJtYWlkT3V0cHV0LTE3MjU5OTE4Njc0OTMgLnJlbGF0aW9ue3N0cm9rZTojMzMzMzMzO3N0cm9rZS13aWR0aDoxO2ZpbGw6bm9uZTt9I2dlTWVybWFpZE91dHB1dC0xNzI1OTkxODY3NDkzIC5kYXNoZWQtbGluZXtzdHJva2UtZGFzaGFycmF5OjM7fSNnZU1lcm1haWRPdXRwdXQtMTcyNTk5MTg2NzQ5MyAjY29tcG9zaXRpb25TdGFydCwjZ2VNZXJtYWlkT3V0cHV0LTE3MjU5OTE4Njc0OTMgLmNvbXBvc2l0aW9ue2ZpbGw6IzMzMzMzMyFpbXBvcnRhbnQ7c3Ryb2tlOiMzMzMzMzMhaW1wb3J0YW50O3N0cm9rZS13aWR0aDoxO30jZ2VNZXJtYWlkT3V0cHV0LTE3MjU5OTE4Njc0OTMgI2NvbXBvc2l0aW9uRW5kLCNnZU1lcm1haWRPdXRwdXQtMTcyNTk5MTg2NzQ5MyAuY29tcG9zaXRpb257ZmlsbDojMzMzMzMzIWltcG9ydGFudDtzdHJva2U6IzMzMzMzMyFpbXBvcnRhbnQ7c3Ryb2tlLXdpZHRoOjE7fSNnZU1lcm1haWRPdXRwdXQtMTcyNTk5MTg2NzQ5MyAjZGVwZW5kZW5jeVN0YXJ0LCNnZU1lcm1haWRPdXRwdXQtMTcyNTk5MTg2NzQ5MyAuZGVwZW5kZW5jeXtmaWxsOiMzMzMzMzMhaW1wb3J0YW50O3N0cm9rZTojMzMzMzMzIWltcG9ydGFudDtzdHJva2Utd2lkdGg6MTt9I2dlTWVybWFpZE91dHB1dC0xNzI1OTkxODY3NDkzICNkZXBlbmRlbmN5U3RhcnQsI2dlTWVybWFpZE91dHB1dC0xNzI1OTkxODY3NDkzIC5kZXBlbmRlbmN5e2ZpbGw6IzMzMzMzMyFpbXBvcnRhbnQ7c3Ryb2tlOiMzMzMzMzMhaW1wb3J0YW50O3N0cm9rZS13aWR0aDoxO30jZ2VNZXJtYWlkT3V0cHV0LTE3MjU5OTE4Njc0OTMgI2V4dGVuc2lvblN0YXJ0LCNnZU1lcm1haWRPdXRwdXQtMTcyNTk5MTg2NzQ5MyAuZXh0ZW5zaW9ue2ZpbGw6IzMzMzMzMyFpbXBvcnRhbnQ7c3Ryb2tlOiMzMzMzMzMhaW1wb3J0YW50O3N0cm9rZS13aWR0aDoxO30jZ2VNZXJtYWlkT3V0cHV0LTE3MjU5OTE4Njc0OTMgI2V4dGVuc2lvbkVuZCwjZ2VNZXJtYWlkT3V0cHV0LTE3MjU5OTE4Njc0OTMgLmV4dGVuc2lvbntmaWxsOiMzMzMzMzMhaW1wb3J0YW50O3N0cm9rZTojMzMzMzMzIWltcG9ydGFudDtzdHJva2Utd2lkdGg6MTt9I2dlTWVybWFpZE91dHB1dC0xNzI1OTkxODY3NDkzICNhZ2dyZWdhdGlvblN0YXJ0LCNnZU1lcm1haWRPdXRwdXQtMTcyNTk5MTg2NzQ5MyAuYWdncmVnYXRpb257ZmlsbDojRUNFQ0ZGIWltcG9ydGFudDtzdHJva2U6IzMzMzMzMyFpbXBvcnRhbnQ7c3Ryb2tlLXdpZHRoOjE7fSNnZU1lcm1haWRPdXRwdXQtMTcyNTk5MTg2NzQ5MyAjYWdncmVnYXRpb25FbmQsI2dlTWVybWFpZE91dHB1dC0xNzI1OTkxODY3NDkzIC5hZ2dyZWdhdGlvbntmaWxsOiNFQ0VDRkYhaW1wb3J0YW50O3N0cm9rZTojMzMzMzMzIWltcG9ydGFudDtzdHJva2Utd2lkdGg6MTt9I2dlTWVybWFpZE91dHB1dC0xNzI1OTkxODY3NDkzIC5lZGdlVGVybWluYWxze2ZvbnQtc2l6ZToxMXB4O30jZ2VNZXJtYWlkT3V0cHV0LTE3MjU5OTE4Njc0OTMgOnJvb3R7LS1tZXJtYWlkLWZvbnQtZmFtaWx5OiJ0cmVidWNoZXQgbXMiLHZlcmRhbmEsYXJpYWwsc2Fucy1zZXJpZjt9PC9zdHlsZT48ZyB0cmFuc2Zvcm09InRyYW5zbGF0ZSgwLCAwKSI+PGRlZnM+PG1hcmtlciBvcmllbnQ9ImF1dG8iIG1hcmtlckhlaWdodD0iMjQwIiBtYXJrZXJXaWR0aD0iMTkwIiByZWZZPSI3IiByZWZYPSIwIiBjbGFzcz0ibWFya2VyIGFnZ3JlZ2F0aW9uIGNsYXNzRGlhZ3JhbSIgaWQ9ImNsYXNzRGlhZ3JhbS1hZ2dyZWdhdGlvblN0YXJ0Ij48cGF0aCBkPSJNIDE4LDcgTDksMTMgTDEsNyBMOSwxIFoiPjwvcGF0aD48L21hcmtlcj48L2RlZnM+PGRlZnM+PG1hcmtlciBvcmllbnQ9ImF1dG8iIG1hcmtlckhlaWdodD0iMjgiIG1hcmtlcldpZHRoPSIyMCIgcmVmWT0iNyIgcmVmWD0iMTkiIGNsYXNzPSJtYXJrZXIgYWdncmVnYXRpb24gY2xhc3NEaWFncmFtIiBpZD0iY2xhc3NEaWFncmFtLWFnZ3JlZ2F0aW9uRW5kIj48cGF0aCBkPSJNIDE4LDcgTDksMTMgTDEsNyBMOSwxIFoiPjwvcGF0aD48L21hcmtlcj48L2RlZnM+PGRlZnM+PG1hcmtlciBvcmllbnQ9ImF1dG8iIG1hcmtlckhlaWdodD0iMjQwIiBtYXJrZXJXaWR0aD0iMTkwIiByZWZZPSI3IiByZWZYPSIwIiBjbGFzcz0ibWFya2VyIGV4dGVuc2lvbiBjbGFzc0RpYWdyYW0iIGlkPSJjbGFzc0RpYWdyYW0tZXh0ZW5zaW9uU3RhcnQiPjxwYXRoIGQ9Ik0gMSw3IEwxOCwxMyBWIDEgWiI+PC9wYXRoPjwvbWFya2VyPjwvZGVmcz48ZGVmcz48bWFya2VyIG9yaWVudD0iYXV0byIgbWFya2VySGVpZ2h0PSIyOCIgbWFya2VyV2lkdGg9IjIwIiByZWZZPSI3IiByZWZYPSIxOSIgY2xhc3M9Im1hcmtlciBleHRlbnNpb24gY2xhc3NEaWFncmFtIiBpZD0iY2xhc3NEaWFncmFtLWV4dGVuc2lvbkVuZCI+PHBhdGggZD0iTSAxLDEgViAxMyBMMTgsNyBaIj48L3BhdGg+PC9tYXJrZXI+PC9kZWZzPjxkZWZzPjxtYXJrZXIgb3JpZW50PSJhdXRvIiBtYXJrZXJIZWlnaHQ9IjI0MCIgbWFya2VyV2lkdGg9IjE5MCIgcmVmWT0iNyIgcmVmWD0iMCIgY2xhc3M9Im1hcmtlciBjb21wb3NpdGlvbiBjbGFzc0RpYWdyYW0iIGlkPSJjbGFzc0RpYWdyYW0tY29tcG9zaXRpb25TdGFydCI+PHBhdGggZD0iTSAxOCw3IEw5LDEzIEwxLDcgTDksMSBaIj48L3BhdGg+PC9tYXJrZXI+PC9kZWZzPjxkZWZzPjxtYXJrZXIgb3JpZW50PSJhdXRvIiBtYXJrZXJIZWlnaHQ9IjI4IiBtYXJrZXJXaWR0aD0iMjAiIHJlZlk9IjciIHJlZlg9IjE5IiBjbGFzcz0ibWFya2VyIGNvbXBvc2l0aW9uIGNsYXNzRGlhZ3JhbSIgaWQ9ImNsYXNzRGlhZ3JhbS1jb21wb3NpdGlvbkVuZCI+PHBhdGggZD0iTSAxOCw3IEw5LDEzIEwxLDcgTDksMSBaIj48L3BhdGg+PC9tYXJrZXI+PC9kZWZzPjxkZWZzPjxtYXJrZXIgb3JpZW50PSJhdXRvIiBtYXJrZXJIZWlnaHQ9IjI0MCIgbWFya2VyV2lkdGg9IjE5MCIgcmVmWT0iNyIgcmVmWD0iMCIgY2xhc3M9Im1hcmtlciBkZXBlbmRlbmN5IGNsYXNzRGlhZ3JhbSIgaWQ9ImNsYXNzRGlhZ3JhbS1kZXBlbmRlbmN5U3RhcnQiPjxwYXRoIGQ9Ik0gNSw3IEw5LDEzIEwxLDcgTDksMSBaIj48L3BhdGg+PC9tYXJrZXI+PC9kZWZzPjxkZWZzPjxtYXJrZXIgb3JpZW50PSJhdXRvIiBtYXJrZXJIZWlnaHQ9IjI4IiBtYXJrZXJXaWR0aD0iMjAiIHJlZlk9IjciIHJlZlg9IjE5IiBjbGFzcz0ibWFya2VyIGRlcGVuZGVuY3kgY2xhc3NEaWFncmFtIiBpZD0iY2xhc3NEaWFncmFtLWRlcGVuZGVuY3lFbmQiPjxwYXRoIGQ9Ik0gMTgsNyBMOSwxMyBMMTQsNyBMOSwxIFoiPjwvcGF0aD48L21hcmtlcj48L2RlZnM+PGcgY2xhc3M9InJvb3QiPjxnIGNsYXNzPSJjbHVzdGVycyI+PC9nPjxnIGNsYXNzPSJlZGdlUGF0aHMiPjxwYXRoIHN0eWxlPSJmaWxsOm5vbmUiIGNsYXNzPSJlZGdlLXBhdHRlcm4tc29saWQgcmVsYXRpb24iIGlkPSJpZDEiIGQ9Ik0xMTk5LjgzMjAzMTI1LDExMjkuODk4MjYwMjYzNzA1MkwxMTg1LjYxNDkwODg1NDE2NjcsMTE0NC40OTg1NTAyMTk3NTQ0QzExNzEuMzk3Nzg2NDU4MzMzMywxMTU5LjA5ODg0MDE3NTgwMzQsMTE0Mi45NjM1NDE2NjY2NjY3LDExODguMjk5NDIwMDg3OTAxOCwxMDg5LjUwMTYyNzYwNDE2NjcsMTIxNS41MDA0ODM0ODIyNjczQzEwMzYuMDM5NzEzNTQxNjY2NywxMjQyLjcwMTU0Njg3NjYzMyw5NTcuNTUwMTMwMjA4MzMzNCwxMjY3LjkwMzA5Mzc1MzI2NjEsOTE4LjMwNTMzODU0MTY2NjYsMTI4MC41MDM4NjcxOTE1ODI3TDg3OS4wNjA1NDY4NzUsMTI5My4xMDQ2NDA2Mjk4OTkyIj48L3BhdGg+PHBhdGggc3R5bGU9ImZpbGw6bm9uZSIgY2xhc3M9ImVkZ2UtcGF0dGVybi1zb2xpZCByZWxhdGlvbiIgaWQ9ImlkMiIgZD0iTTEyOTkuNTQyOTY4NzUsMTE4M0wxMjk5LjU0Mjk2ODc1LDExODguNzVDMTI5OS41NDI5Njg3NSwxMTk0LjUsMTI5OS41NDI5Njg3NSwxMjA2LDEyODUuNTk2NDQyMzI4NTU5LDEyMjMuMjVDMTI3MS42NDk5MTU5MDcxMTgyLDEyNDAuNSwxMjQzLjc1Njg2MzA2NDIzNiwxMjYzLjUsMTIyOS44MTAzMzY2NDI3OTUyLDEyNzVMMTIxNS44NjM4MTAyMjEzNTQyLDEyODYuNSI+PC9wYXRoPjxwYXRoIHN0eWxlPSJmaWxsOm5vbmUiIGNsYXNzPSJlZGdlLXBhdHRlcm4tc29saWQgcmVsYXRpb24iIGlkPSJpZDMiIGQ9Ik0yNjkuMTI0MTgxMzI0ODUwMjcsNDkyTDI2Ni4wMDg0MzIzNTQwNDE5LDQ5Ny43NUMyNjIuODkyNjgzMzgzMjMzNTMsNTAzLjUsMjU2LjY2MTE4NTQ0MTYxNjc0LDUxNSwyNTMuNTQ1NDM2NDcwODA4MzcsNTQ2LjY2NjY2NjY2NjY2NjZDMjUwLjQyOTY4NzUsNTc4LjMzMzMzMzMzMzMzMzQsMjUwLjQyOTY4NzUsNjMwLjE2NjY2NjY2NjY2NjYsMjUwLjQyOTY4NzUsNjgyQzI1MC40Mjk2ODc1LDczMy44MzMzMzMzMzMzMzM0LDI1MC40Mjk2ODc1LDc4NS42NjY2NjY2NjY2NjY2LDI1MC40Mjk2ODc1LDgyMS4xNjY2NjY2NjY2NjY2QzI1MC40Mjk2ODc1LDg1Ni42NjY2NjY2NjY2NjY2LDI1MC40Mjk2ODc1LDg3NS44MzMzMzMzMzMzMzM0LDI1MC40Mjk2ODc1LDg4NS40MTY2NjY2NjY2NjY2TDI1MC40Mjk2ODc1LDg5NSI+PC9wYXRoPjxwYXRoIHN0eWxlPSJmaWxsOm5vbmUiIGNsYXNzPSJlZGdlLXBhdHRlcm4tc29saWQgcmVsYXRpb24iIGlkPSJpZDQiIGQ9Ik01NTAuMjQ2MDkzNzUsNDM2Ljg0MDE1MjEwNDM5ODk1TDU5MC42OTA3NTUyMDgzMzM0LDQ1MS43ODM0NjAwODY5OTkxQzYzMS4xMzU0MTY2NjY2NjY2LDQ2Ni43MjY3NjgwNjk1OTkzLDcxMi4wMjQ3Mzk1ODMzMzM0LDQ5Ni42MTMzODQwMzQ3OTk2LDgxMS4yNTUyMDgzMzMzMzM0LDUyOS41OTk4NjUwNzk3NDI1QzkxMC40ODU2NzcwODMzMzM0LDU2Mi41ODYzNDYxMjQ2ODU1LDEwMjguMDU3MjkxNjY2NjY2Nyw1OTguNjcyNjkyMjQ5MzcwOSwxMDg2Ljg0MzA5ODk1ODMzMzMsNjE2LjcxNTg2NTMxMTcxMzZMMTE0NS42Mjg5MDYyNSw2MzQuNzU5MDM4Mzc0MDU2NCI+PC9wYXRoPjxwYXRoIHN0eWxlPSJmaWxsOm5vbmUiIGNsYXNzPSJlZGdlLXBhdHRlcm4tc29saWQgcmVsYXRpb24iIGlkPSJpZDUiIGQ9Ik02NzEuODYxMjUxMDI3OTYwNSwxMTYwTDY1OC4xNTAzMjYzNzc0NjcxLDExNjkuNTgzMzMzMzMzMzMzM0M2NDQuNDM5NDAxNzI2OTczNiwxMTc5LjE2NjY2NjY2NjY2NjcsNjE3LjAxNzU1MjQyNTk4NjgsMTE5OC4zMzMzMzMzMzMzMzMzLDYwOS40MTE5NDczMjg0NDQ5LDEyMTkuNDE2NjY2NjY2NjY2N0M2MDEuODA2MzQyMjMwOTAyOCwxMjQwLjUsNjE0LjAxNjk4MTMzNjgwNTUsMTI2My41LDYyMC4xMjIzMDA4ODk3NTcsMTI3NUw2MjYuMjI3NjIwNDQyNzA4NCwxMjg2LjUiPjwvcGF0aD48cGF0aCBzdHlsZT0iZmlsbDpub25lIiBjbGFzcz0iZWRnZS1wYXR0ZXJuLXNvbGlkIHJlbGF0aW9uIiBpZD0iaWQ2IiBkPSJNOTkxLjg1ODAxMjk1MjMwMjYsMTE2MEwxMDAxLjI5MTUwODE4OTQxODksMTE2OS41ODMzMzMzMzMzMzMzQzEwMTAuNzI1MDAzNDI2NTM1LDExNzkuMTY2NjY2NjY2NjY2NywxMDI5LjU5MTk5MzkwMDc2NzQsMTE5OC4zMzMzMzMzMzMzMzMzLDEwNDUuMTMwODA4NjkwODM1LDEyMTkuNDE2NjY2NjY2NjY2N0MxMDYwLjY2OTYyMzQ4MDkwMjYsMTI0MC41LDEwNzIuODgwMjYyNTg2ODA1NCwxMjYzLjUsMTA3OC45ODU1ODIxMzk3NTY4LDEyNzVMMTA4NS4wOTA5MDE2OTI3MDgzLDEyODYuNSI+PC9wYXRoPjxwYXRoIHN0eWxlPSJmaWxsOm5vbmUiIGNsYXNzPSJlZGdlLXBhdHRlcm4tc29saWQgcmVsYXRpb24iIGlkPSJpZDciIGQ9Ik0yMTIuMzI3NzY1MjEzODE1NzgsMTE2MEwyMDkuNTcxOTY1ODAzMTc5ODQsMTE2OS41ODMzMzMzMzMzMzMzQzIwNi44MTYxNjYzOTI1NDM4NiwxMTc5LjE2NjY2NjY2NjY2NjcsMjAxLjMwNDU2NzU3MTI3MTk1LDExOTguMzMzMzMzMzMzMzMzMywxOTguNTQ4NzY4MTYwNjM1OTcsMTIxMy42NjY2NjY2NjY2NjY3QzE5NS43OTI5Njg3NSwxMjI5LDE5NS43OTI5Njg3NSwxMjQwLjUsMTk1Ljc5Mjk2ODc1LDEyNDYuMjVMMTk1Ljc5Mjk2ODc1LDEyNTIiPjwvcGF0aD48cGF0aCBzdHlsZT0iZmlsbDpub25lIiBjbGFzcz0iZWRnZS1wYXR0ZXJuLXNvbGlkIHJlbGF0aW9uIiBpZD0iaWQ4IiBkPSJNMTI5OS41NDI5Njg3NSw4MDNMMTI5OS41NDI5Njg3NSw4MDguNzVDMTI5OS41NDI5Njg3NSw4MTQuNSwxMjk5LjU0Mjk2ODc1LDgyNiwxMjk5LjU0Mjk2ODc1LDgzNy41QzEyOTkuNTQyOTY4NzUsODQ5LDEyOTkuNTQyOTY4NzUsODYwLjUsMTI5OS41NDI5Njg3NSw4NjYuMjVMMTI5OS41NDI5Njg3NSw4NzIiPjwvcGF0aD48cGF0aCBzdHlsZT0iZmlsbDpub25lIiBjbGFzcz0iZWRnZS1wYXR0ZXJuLXNvbGlkIHJlbGF0aW9uIiBpZD0iaWQ5IiBkPSJNMzUxLjU4MzUyMTc5Mjc2MzIsMTE2MEwzNTguODk5Njc5NjE4OTY5MywxMTY5LjU4MzMzMzMzMzMzMzNDMzY2LjIxNTgzNzQ0NTE3NTQsMTE3OS4xNjY2NjY2NjY2NjY3LDM4MC44NDgxNTMwOTc1ODc3LDExOTguMzMzMzMzMzMzMzMzMyw0MDkuNzcxODg4Nzc3NTI2NSwxMjE5LjQxNjY2NjY2NjY2NjdDNDM4LjY5NTYyNDQ1NzQ2NTMsMTI0MC41LDQ4MS45MTA3ODAxNjQ5MzA2LDEyNjMuNSw1MDMuNTE4MzU4MDE4NjYzMjYsMTI3NUw1MjUuMTI1OTM1ODcyMzk1OSwxMjg2LjUiPjwvcGF0aD48cGF0aCBzdHlsZT0iZmlsbDpub25lIiBjbGFzcz0iZWRnZS1wYXR0ZXJuLXNvbGlkIHJlbGF0aW9uIiBpZD0iaWQxMCIgZD0iTTQxNi4xMzM2ODYyNjY0NDc0LDExNjBMNDI4LjExODU2NjY4MDM3Mjg1LDExNjkuNTgzMzMzMzMzMzMzM0M0NDAuMTAzNDQ3MDk0Mjk4MjUsMTE3OS4xNjY2NjY2NjY2NjY3LDQ2NC4wNzMyMDc5MjIxNDkxNSwxMTk4LjMzMzMzMzMzMzMzMzMsNTQ5LjU2MTAxODAyMzU3NDUsMTIyNC41MzYyMjk2NTA2NDI4QzYzNS4wNDg4MjgxMjUsMTI1MC43MzkxMjU5Njc5NTIzLDc4Mi4wNTQ2ODc1LDEyODMuOTc4MjUxOTM1OTA0NCw4NTUuNTU3NjE3MTg3NSwxMzAwLjU5NzgxNDkxOTg4MDRMOTI5LjA2MDU0Njg3NSwxMzE3LjIxNzM3NzkwMzg1NjUiPjwvcGF0aD48cGF0aCBzdHlsZT0iZmlsbDpub25lIiBjbGFzcz0iZWRnZS1wYXR0ZXJuLXNvbGlkIHJlbGF0aW9uIiBpZD0iaWQxMSIgZD0iTTM0MC45MjE4NzUsMTU4TDM0MC45MjE4NzUsMTYzLjc1QzM0MC45MjE4NzUsMTY5LjUsMzQwLjkyMTg3NSwxODEsMzQwLjkyMTg3NSwxOTIuNUMzNDAuOTIxODc1LDIwNCwzNDAuOTIxODc1LDIxNS41LDM0MC45MjE4NzUsMjIxLjI1TDM0MC45MjE4NzUsMjI3Ij48L3BhdGg+PHBhdGggc3R5bGU9ImZpbGw6bm9uZSIgY2xhc3M9ImVkZ2UtcGF0dGVybi1zb2xpZCByZWxhdGlvbiIgaWQ9ImlkMTIiIGQ9Ik0xMzEzLjM3ODkwNjI1LDQzNC41TDEzMTMuMzc4OTA2MjUsNDQ5LjgzMzMzMzMzMzMzMzNDMTMxMy4zNzg5MDYyNSw0NjUuMTY2NjY2NjY2NjY2NywxMzEzLjM3ODkwNjI1LDQ5NS44MzMzMzMzMzMzMzMzLDEzMTIuODY3Mjg3OTgyMzE1LDUxNi45MTY2NjY2NjY2NjY2QzEzMTIuMzU1NjY5NzE0NjMwMyw1MzgsMTMxMS4zMzI0MzMxNzkyNjAzLDU0OS41LDEzMTAuODIwODE0OTExNTc1Niw1NTUuMjVMMTMxMC4zMDkxOTY2NDM4OTA2LDU2MSI+PC9wYXRoPjwvZz48ZyBjbGFzcz0iZWRnZUxhYmVscyI+PGcgdHJhbnNmb3JtPSJ0cmFuc2xhdGUoMTExNC41MjkyOTY4NzUsIDEyMTcuNSkiIGNsYXNzPSJlZGdlTGFiZWwiPjxnIHRyYW5zZm9ybT0idHJhbnNsYXRlKC0xNS40NzI2NTYyNSwgLTkuNSkiIGNsYXNzPSJsYWJlbCI+PHJlY3QgaGVpZ2h0PSIxOC40MzU4MTAwODkxMTEzMjgiIHdpZHRoPSIzMi4zMDg1NDQxNTg5MzU1NSIgcnk9IjAiIHJ4PSIwIj48L3JlY3Q+PHRleHQgc3R5bGU9IiI+PHRzcGFuIGNsYXNzPSJyb3ciIHg9IjAiIGR5PSIxZW0iIHhtbDpzcGFjZT0icHJlc2VydmUiPnVzZXM8L3RzcGFuPjwvdGV4dD48L2c+PC9nPjxnIHRyYW5zZm9ybT0idHJhbnNsYXRlKDExNzYuODc2NTk0ODgyNjQyMiwgMTEzMS45NzE0MDc5MTUwMjc2KSIgY2xhc3M9ImVkZ2VUZXJtaW5hbHMiPjxnIHRyYW5zZm9ybT0idHJhbnNsYXRlKC0yLjg5MDYyNSwgLTYpIiBjbGFzcz0iaW5uZXIiPjx0ZXh0IHN0eWxlPSIiPjx0c3BhbiBjbGFzcz0icm93IiB4PSIwIiBkeT0iMWVtIiB4bWw6c3BhY2U9InByZXNlcnZlIj4xPC90c3Bhbj48L3RleHQ+PC9nPjwvZz48ZyB0cmFuc2Zvcm09InRyYW5zbGF0ZSg4OTUuMzA4Mzc0Nzg5NzA2NSwgMTI5Ny4wMzY1OTUwMDIwOTY5KSIgY2xhc3M9ImVkZ2VUZXJtaW5hbHMiPjxnIHRyYW5zZm9ybT0idHJhbnNsYXRlKC04Ljk0NTMxMjUsIC02KSIgY2xhc3M9ImlubmVyIj48L2c+PHRleHQgc3R5bGU9IiI+PHRzcGFuIGNsYXNzPSJyb3ciIHg9IjAiIGR5PSIxZW0iIHhtbDpzcGFjZT0icHJlc2VydmUiPjAuLio8L3RzcGFuPjwvdGV4dD48L2c+PGcgdHJhbnNmb3JtPSJ0cmFuc2xhdGUoMTI5OS41NDI5Njg3NSwgMTIxNy41KSIgY2xhc3M9ImVkZ2VMYWJlbCI+PGcgdHJhbnNmb3JtPSJ0cmFuc2xhdGUoLTE1LjQ3MjY1NjI1LCAtOS41KSIgY2xhc3M9ImxhYmVsIj48cmVjdCBoZWlnaHQ9IjE4LjQzNTgxMDA4OTExMTMyOCIgd2lkdGg9IjMyLjMwODU0NDE1ODkzNTU1IiByeT0iMCIgcng9IjAiPjwvcmVjdD48dGV4dCBzdHlsZT0iIj48dHNwYW4gY2xhc3M9InJvdyIgeD0iMCIgZHk9IjFlbSIgeG1sOnNwYWNlPSJwcmVzZXJ2ZSI+dXNlczwvdHNwYW4+PC90ZXh0PjwvZz48L2c+PGcgdHJhbnNmb3JtPSJ0cmFuc2xhdGUoMTI4NC4zNTEwMDYwNjQ5MTY2LCAxMjAwLjI0Mjg2NTI0ODg4NjEpIiBjbGFzcz0iZWRnZVRlcm1pbmFscyI+PGcgdHJhbnNmb3JtPSJ0cmFuc2xhdGUoLTIuODkwNjI1LCAtNikiIGNsYXNzPSJpbm5lciI+PHRleHQgc3R5bGU9IiI+PHRzcGFuIGNsYXNzPSJyb3ciIHg9IjAiIGR5PSIxZW0iIHhtbDpzcGFjZT0icHJlc2VydmUiPjE8L3RzcGFuPjwvdGV4dD48L2c+PC9nPjxnIHRyYW5zZm9ybT0idHJhbnNsYXRlKDEyMzMuOTA4NDc3MjM5MzMxNCwgMTI4MS45Mzk2ODQwMTIxNzMzKSIgY2xhc3M9ImVkZ2VUZXJtaW5hbHMiPjxnIHRyYW5zZm9ybT0idHJhbnNsYXRlKC04Ljk0NTMxMjUsIC02KSIgY2xhc3M9ImlubmVyIj48L2c+PHRleHQgc3R5bGU9IiI+PHRzcGFuIGNsYXNzPSJyb3ciIHg9IjAiIGR5PSIxZW0iIHhtbDpzcGFjZT0icHJlc2VydmUiPjAuLio8L3RzcGFuPjwvdGV4dD48L2c+PGcgdHJhbnNmb3JtPSJ0cmFuc2xhdGUoMjUwLjQyOTY4NzUsIDY4MikiIGNsYXNzPSJlZGdlTGFiZWwiPjxnIHRyYW5zZm9ybT0idHJhbnNsYXRlKC0zMS43MTA5Mzc1LCAtOS41KSIgY2xhc3M9ImxhYmVsIj48cmVjdCBoZWlnaHQ9IjE4LjQzNTgxMDA4OTExMTMyOCIgd2lkdGg9IjY0Ljc2MjQ1MTE3MTg3NSIgcnk9IjAiIHJ4PSIwIj48L3JlY3Q+PHRleHQgc3R5bGU9IiI+PHRzcGFuIGNsYXNzPSJyb3ciIHg9IjAiIGR5PSIxZW0iIHhtbDpzcGFjZT0icHJlc2VydmUiPmRldmVsb3BzPC90c3Bhbj48L3RleHQ+PC9nPjwvZz48ZyB0cmFuc2Zvcm09InRyYW5zbGF0ZSgyNDcuNTk4NTU1MDkwMjQ5MjIsIDUwMC4yMzk5ODg3ODY5MDExKSIgY2xhc3M9ImVkZ2VUZXJtaW5hbHMiPjxnIHRyYW5zZm9ybT0idHJhbnNsYXRlKC0yLjg5MDYyNSwgLTYpIiBjbGFzcz0iaW5uZXIiPjx0ZXh0IHN0eWxlPSIiPjx0c3BhbiBjbGFzcz0icm93IiB4PSIwIiBkeT0iMWVtIiB4bWw6c3BhY2U9InByZXNlcnZlIj4xPC90c3Bhbj48L3RleHQ+PC9nPjwvZz48ZyB0cmFuc2Zvcm09InRyYW5zbGF0ZSgyNjAuNDI5Njg3NSwgODcyLjUpIiBjbGFzcz0iZWRnZVRlcm1pbmFscyI+PGcgdHJhbnNmb3JtPSJ0cmFuc2xhdGUoLTguOTQ1MzEyNSwgLTYpIiBjbGFzcz0iaW5uZXIiPjwvZz48dGV4dCBzdHlsZT0iIj48dHNwYW4gY2xhc3M9InJvdyIgeD0iMCIgZHk9IjFlbSIgeG1sOnNwYWNlPSJwcmVzZXJ2ZSI+MC4uKjwvdHNwYW4+PC90ZXh0PjwvZz48ZyB0cmFuc2Zvcm09InRyYW5zbGF0ZSg3OTIuOTE0MDYyNSwgNTI2LjUpIiBjbGFzcz0iZWRnZUxhYmVsIj48ZyB0cmFuc2Zvcm09InRyYW5zbGF0ZSgtNzAuNDkyMTg3NSwgLTkuNSkiIGNsYXNzPSJsYWJlbCI+PHJlY3QgaGVpZ2h0PSIxOC40MzU4MTAwODkxMTEzMjgiIHdpZHRoPSIxNDEuOTQ4Mjg3OTYzODY3MiIgcnk9IjAiIHJ4PSIwIj48L3JlY3Q+PHRleHQgc3R5bGU9IiI+PHRzcGFuIGNsYXNzPSJyb3ciIHg9IjAiIGR5PSIxZW0iIHhtbDpzcGFjZT0icHJlc2VydmUiPmVuc3VyZXMgY29tcGxpYW5jZTwvdHNwYW4+PC90ZXh0PjwvZz48L2c+PGcgdHJhbnNmb3JtPSJ0cmFuc2xhdGUoNTYxLjQ2MjgzNjQxMTM1NzQsIDQ1Ni45NzU1NjA4MTgxMjcxKSIgY2xhc3M9ImVkZ2VUZXJtaW5hbHMiPjxnIHRyYW5zZm9ybT0idHJhbnNsYXRlKC0yLjg5MDYyNSwgLTYpIiBjbGFzcz0iaW5uZXIiPjx0ZXh0IHN0eWxlPSIiPjx0c3BhbiBjbGFzcz0icm93IiB4PSIwIiBkeT0iMWVtIiB4bWw6c3BhY2U9InByZXNlcnZlIj4xPC90c3Bhbj48L3RleHQ+PC9nPjwvZz48ZyB0cmFuc2Zvcm09InRyYW5zbGF0ZSgxMTI4LjMwMDUwNzQzNjEwMzUsIDYxMC4yODQ0MjQ1NzMzNzk1KSIgY2xhc3M9ImVkZ2VUZXJtaW5hbHMiPjxnIHRyYW5zZm9ybT0idHJhbnNsYXRlKC04Ljk0NTMxMjUsIC02KSIgY2xhc3M9ImlubmVyIj48L2c+PHRleHQgc3R5bGU9IiI+PHRzcGFuIGNsYXNzPSJyb3ciIHg9IjAiIGR5PSIxZW0iIHhtbDpzcGFjZT0icHJlc2VydmUiPjAuLio8L3RzcGFuPjwvdGV4dD48L2c+PGcgdHJhbnNmb3JtPSJ0cmFuc2xhdGUoNTg5LjU5NTcwMzEyNSwgMTIxNy41KSIgY2xhc3M9ImVkZ2VMYWJlbCI+PGcgdHJhbnNmb3JtPSJ0cmFuc2xhdGUoLTMwLjU5NzY1NjI1LCAtOS41KSIgY2xhc3M9ImxhYmVsIj48cmVjdCBoZWlnaHQ9IjE4LjQzNTgxMDA4OTExMTMyOCIgd2lkdGg9IjYyLjUzNzQ1NjUxMjQ1MTE3IiByeT0iMCIgcng9IjAiPjwvcmVjdD48dGV4dCBzdHlsZT0iIj48dHNwYW4gY2xhc3M9InJvdyIgeD0iMCIgZHk9IjFlbSIgeG1sOnNwYWNlPSJwcmVzZXJ2ZSI+c3VwcG9ydHM8L3RzcGFuPjwvdGV4dD48L2c+PC9nPjxnIHRyYW5zZm9ybT0idHJhbnNsYXRlKDY0OC45MjQzNDIxNjU4MzQ2LCAxMTU3LjczMTAzMjg2NzAyNDYpIiBjbGFzcz0iZWRnZVRlcm1pbmFscyI+PGcgdHJhbnNmb3JtPSJ0cmFuc2xhdGUoLTguOTQ1MzEyNSwgLTYpIiBjbGFzcz0iaW5uZXIiPjx0ZXh0IHN0eWxlPSIiPjx0c3BhbiBjbGFzcz0icm93IiB4PSIwIiBkeT0iMWVtIiB4bWw6c3BhY2U9InByZXNlcnZlIj4wLi4qPC90c3Bhbj48L3RleHQ+PC9nPjwvZz48ZyB0cmFuc2Zvcm09InRyYW5zbGF0ZSg2MjYuMjcwMzI2MzcxNzAzMiwgMTI1OS4wMDk1MzI3NTQ2NjA1KSIgY2xhc3M9ImVkZ2VUZXJtaW5hbHMiPjxnIHRyYW5zZm9ybT0idHJhbnNsYXRlKC04Ljk0NTMxMjUsIC02KSIgY2xhc3M9ImlubmVyIj48L2c+PHRleHQgc3R5bGU9IiI+PHRzcGFuIGNsYXNzPSJyb3ciIHg9IjAiIGR5PSIxZW0iIHhtbDpzcGFjZT0icHJlc2VydmUiPjAuLio8L3RzcGFuPjwvdGV4dD48L2c+PGcgdHJhbnNmb3JtPSJ0cmFuc2xhdGUoMTA0OC40NTg5ODQzNzUsIDEyMTcuNSkiIGNsYXNzPSJlZGdlTGFiZWwiPjxnIHRyYW5zZm9ybT0idHJhbnNsYXRlKC0zMC41OTc2NTYyNSwgLTkuNSkiIGNsYXNzPSJsYWJlbCI+PHJlY3QgaGVpZ2h0PSIxOC40MzU4MTAwODkxMTEzMjgiIHdpZHRoPSI2Mi41Mzc0NTY1MTI0NTExNyIgcnk9IjAiIHJ4PSIwIj48L3JlY3Q+PHRleHQgc3R5bGU9IiI+PHRzcGFuIGNsYXNzPSJyb3ciIHg9IjAiIGR5PSIxZW0iIHhtbDpzcGFjZT0icHJlc2VydmUiPnN1cHBvcnRzPC90c3Bhbj48L3RleHQ+PC9nPjwvZz48ZyB0cmFuc2Zvcm09InRyYW5zbGF0ZSg5OTMuNDQ0NjU4MTQ2MjIyLCAxMTgyLjk5NDE4NTI4NzM0MikiIGNsYXNzPSJlZGdlVGVybWluYWxzIj48ZyB0cmFuc2Zvcm09InRyYW5zbGF0ZSgtOC45NDUzMTI1LCAtNikiIGNsYXNzPSJpbm5lciI+PHRleHQgc3R5bGU9IiI+PHRzcGFuIGNsYXNzPSJyb3ciIHg9IjAiIGR5PSIxZW0iIHhtbDpzcGFjZT0icHJlc2VydmUiPjAuLio8L3RzcGFuPjwvdGV4dD48L2c+PC9nPjxnIHRyYW5zZm9ybT0idHJhbnNsYXRlKDEwODUuMTMzNjA3NjIxNzAzLCAxMjU5LjAwOTUzMjc1NDY2MDgpIiBjbGFzcz0iZWRnZVRlcm1pbmFscyI+PGcgdHJhbnNmb3JtPSJ0cmFuc2xhdGUoLTguOTQ1MzEyNSwgLTYpIiBjbGFzcz0iaW5uZXIiPjwvZz48dGV4dCBzdHlsZT0iIj48dHNwYW4gY2xhc3M9InJvdyIgeD0iMCIgZHk9IjFlbSIgeG1sOnNwYWNlPSJwcmVzZXJ2ZSI+MC4uKjwvdHNwYW4+PC90ZXh0PjwvZz48ZyB0cmFuc2Zvcm09InRyYW5zbGF0ZSgxOTUuNzkyOTY4NzUsIDEyMTcuNSkiIGNsYXNzPSJlZGdlTGFiZWwiPjxnIHRyYW5zZm9ybT0idHJhbnNsYXRlKC0yOC41MjM0Mzc1LCAtOS41KSIgY2xhc3M9ImxhYmVsIj48cmVjdCBoZWlnaHQ9IjE4LjQzNTgxMDA4OTExMTMyOCIgd2lkdGg9IjU4LjM5MTkyMTk5NzA3MDMxIiByeT0iMCIgcng9IjAiPjwvcmVjdD48dGV4dCBzdHlsZT0iIj48dHNwYW4gY2xhc3M9InJvdyIgeD0iMCIgZHk9IjFlbSIgeG1sOnNwYWNlPSJwcmVzZXJ2ZSI+dXBkYXRlczwvdHNwYW4+PC90ZXh0PjwvZz48L2c+PGcgdHJhbnNmb3JtPSJ0cmFuc2xhdGUoMTkzLjA3NTYyMzczNDEzNjA2LCAxMTcyLjY3MzAwNDcxMjYzMikiIGNsYXNzPSJlZGdlVGVybWluYWxzIj48ZyB0cmFuc2Zvcm09InRyYW5zbGF0ZSgtMi44OTA2MjUsIC02KSIgY2xhc3M9ImlubmVyIj48dGV4dCBzdHlsZT0iIj48dHNwYW4gY2xhc3M9InJvdyIgeD0iMCIgZHk9IjFlbSIgeG1sOnNwYWNlPSJwcmVzZXJ2ZSI+MTwvdHNwYW4+PC90ZXh0PjwvZz48L2c+PGcgdHJhbnNmb3JtPSJ0cmFuc2xhdGUoMjA1Ljg2MTk0MjI2MjY4Mzc1LCAxMjI5LjU2ODk4OTU4MDUyMykiIGNsYXNzPSJlZGdlVGVybWluYWxzIj48ZyB0cmFuc2Zvcm09InRyYW5zbGF0ZSgtMi44OTA2MjUsIC02KSIgY2xhc3M9ImlubmVyIj48L2c+PHRleHQgc3R5bGU9IiI+PHRzcGFuIGNsYXNzPSJyb3ciIHg9IjAiIGR5PSIxZW0iIHhtbDpzcGFjZT0icHJlc2VydmUiPjE8L3RzcGFuPjwvdGV4dD48L2c+PGcgdHJhbnNmb3JtPSJ0cmFuc2xhdGUoMTI5OS41NDI5Njg3NSwgODM3LjUpIiBjbGFzcz0iZWRnZUxhYmVsIj48ZyB0cmFuc2Zvcm09InRyYW5zbGF0ZSgtMzMuNDU3MDMxMjUsIC05LjUpIiBjbGFzcz0ibGFiZWwiPjxyZWN0IGhlaWdodD0iMTguNDM1ODEwMDg5MTExMzI4IiB3aWR0aD0iNjguMjUyMjA0ODk1MDE5NTMiIHJ5PSIwIiByeD0iMCI+PC9yZWN0Pjx0ZXh0IHN0eWxlPSIiPjx0c3BhbiBjbGFzcz0icm93IiB4PSIwIiBkeT0iMWVtIiB4bWw6c3BhY2U9InByZXNlcnZlIj5yZWd1bGF0ZXM8L3RzcGFuPjwvdGV4dD48L2c+PC9nPjxnIHRyYW5zZm9ybT0idHJhbnNsYXRlKDEyODQuNTQyOTY4NzUsIDgyMC41KSIgY2xhc3M9ImVkZ2VUZXJtaW5hbHMiPjxnIHRyYW5zZm9ybT0idHJhbnNsYXRlKC0yLjg5MDYyNSwgLTYpIiBjbGFzcz0iaW5uZXIiPjx0ZXh0IHN0eWxlPSIiPjx0c3BhbiBjbGFzcz0icm93IiB4PSIwIiBkeT0iMWVtIiB4bWw6c3BhY2U9InByZXNlcnZlIj4xPC90c3Bhbj48L3RleHQ+PC9nPjwvZz48ZyB0cmFuc2Zvcm09InRyYW5zbGF0ZSgxMzA5LjU0Mjk2ODc1LCA4NDkuNSkiIGNsYXNzPSJlZGdlVGVybWluYWxzIj48ZyB0cmFuc2Zvcm09InRyYW5zbGF0ZSgtOC45NDUzMTI1LCAtNikiIGNsYXNzPSJpbm5lciI+PC9nPjx0ZXh0IHN0eWxlPSIiPjx0c3BhbiBjbGFzcz0icm93IiB4PSIwIiBkeT0iMWVtIiB4bWw6c3BhY2U9InByZXNlcnZlIj4wLi4qPC90c3Bhbj48L3RleHQ+PC9nPjxnIHRyYW5zZm9ybT0idHJhbnNsYXRlKDM5NS40ODA0Njg3NSwgMTIxNy41KSIgY2xhc3M9ImVkZ2VMYWJlbCI+PGcgdHJhbnNmb3JtPSJ0cmFuc2xhdGUoLTM2LjI4MTI1LCAtOS41KSIgY2xhc3M9ImxhYmVsIj48cmVjdCBoZWlnaHQ9IjE4LjQzNTgxMDA4OTExMTMyOCIgd2lkdGg9IjczLjg5NjY4MjczOTI1NzgxIiByeT0iMCIgcng9IjAiPjwvcmVjdD48dGV4dCBzdHlsZT0iIj48dHNwYW4gY2xhc3M9InJvdyIgeD0iMCIgZHk9IjFlbSIgeG1sOnNwYWNlPSJwcmVzZXJ2ZSI+aW50ZXJmYWNlczwvdHNwYW4+PC90ZXh0PjwvZz48L2c+PGcgdHJhbnNmb3JtPSJ0cmFuc2xhdGUoMzUwLjI3OTkyMjQwMjQ1NDIsIDExODMuMDExOTY3MDc0MzIpIiBjbGFzcz0iZWRnZVRlcm1pbmFscyI+PGcgdHJhbnNmb3JtPSJ0cmFuc2xhdGUoLTguOTQ1MzEyNSwgLTYpIiBjbGFzcz0iaW5uZXIiPjx0ZXh0IHN0eWxlPSIiPjx0c3BhbiBjbGFzcz0icm93IiB4PSIwIiBkeT0iMWVtIiB4bWw6c3BhY2U9InByZXNlcnZlIj4wLi4qPC90c3Bhbj48L3RleHQ+PC9nPjwvZz48ZyB0cmFuc2Zvcm09InRyYW5zbGF0ZSg1MTEuNzI0OTc4NzA4MTM0NSwgMTI2MC4wMzY2ODQzNDkyMzgpIiBjbGFzcz0iZWRnZVRlcm1pbmFscyI+PGcgdHJhbnNmb3JtPSJ0cmFuc2xhdGUoLTIuODkwNjI1LCAtNikiIGNsYXNzPSJpbm5lciI+PC9nPjx0ZXh0IHN0eWxlPSIiPjx0c3BhbiBjbGFzcz0icm93IiB4PSIwIiBkeT0iMWVtIiB4bWw6c3BhY2U9InByZXNlcnZlIj4xPC90c3Bhbj48L3RleHQ+PC9nPjxnIHRyYW5zZm9ybT0idHJhbnNsYXRlKDQ4OC4wNDI5Njg3NSwgMTIxNy41KSIgY2xhc3M9ImVkZ2VMYWJlbCI+PGcgdHJhbnNmb3JtPSJ0cmFuc2xhdGUoLTM2LjI4MTI1LCAtOS41KSIgY2xhc3M9ImxhYmVsIj48cmVjdCBoZWlnaHQ9IjE4LjQzNTgxMDA4OTExMTMyOCIgd2lkdGg9IjczLjg5NjY4MjczOTI1NzgxIiByeT0iMCIgcng9IjAiPjwvcmVjdD48dGV4dCBzdHlsZT0iIj48dHNwYW4gY2xhc3M9InJvdyIgeD0iMCIgZHk9IjFlbSIgeG1sOnNwYWNlPSJwcmVzZXJ2ZSI+aW50ZXJmYWNlczwvdHNwYW4+PC90ZXh0PjwvZz48L2c+PGcgdHJhbnNmb3JtPSJ0cmFuc2xhdGUoNDIwLjQzMzczMTkyOTc4ODIsIDExODIuNjQ0MTk1ODg1MzI5NykiIGNsYXNzPSJlZGdlVGVybWluYWxzIj48ZyB0cmFuc2Zvcm09InRyYW5zbGF0ZSgtOC45NDUzMTI1LCAtNikiIGNsYXNzPSJpbm5lciI+PHRleHQgc3R5bGU9IiI+PHRzcGFuIGNsYXNzPSJyb3ciIHg9IjAiIGR5PSIxZW0iIHhtbDpzcGFjZT0icHJlc2VydmUiPjAuLio8L3RzcGFuPjwvdGV4dD48L2c+PC9nPjxnIHRyYW5zZm9ybT0idHJhbnNsYXRlKDkxMC4yOTk1Mzc3MDUzMzM0LCAxMjkzLjcyNzI1NTQ5NjY4MDMpIiBjbGFzcz0iZWRnZVRlcm1pbmFscyI+PGcgdHJhbnNmb3JtPSJ0cmFuc2xhdGUoLTIuODkwNjI1LCAtNikiIGNsYXNzPSJpbm5lciI+PC9nPjx0ZXh0IHN0eWxlPSIiPjx0c3BhbiBjbGFzcz0icm93IiB4PSIwIiBkeT0iMWVtIiB4bWw6c3BhY2U9InByZXNlcnZlIj4xPC90c3Bhbj48L3RleHQ+PC9nPjxnIHRyYW5zZm9ybT0idHJhbnNsYXRlKDM0MC45MjE4NzUsIDE5Mi41KSIgY2xhc3M9ImVkZ2VMYWJlbCI+PGcgdHJhbnNmb3JtPSJ0cmFuc2xhdGUoLTQxLjA1MDc4MTI1LCAtOS41KSIgY2xhc3M9ImxhYmVsIj48cmVjdCBoZWlnaHQ9IjE4LjQzNTgxMDA4OTExMTMyOCIgd2lkdGg9IjgzLjQyOTExNTI5NTQxMDE2IiByeT0iMCIgcng9IjAiPjwvcmVjdD48dGV4dCBzdHlsZT0iIj48dHNwYW4gY2xhc3M9InJvdyIgeD0iMCIgZHk9IjFlbSIgeG1sOnNwYWNlPSJwcmVzZXJ2ZSI+Y29udHJpYnV0ZXM8L3RzcGFuPjwvdGV4dD48L2c+PC9nPjxnIHRyYW5zZm9ybT0idHJhbnNsYXRlKDMyNS45MjE4NzUsIDE3NS41KSIgY2xhc3M9ImVkZ2VUZXJtaW5hbHMiPjxnIHRyYW5zZm9ybT0idHJhbnNsYXRlKC04Ljk0NTMxMjUsIC02KSIgY2xhc3M9ImlubmVyIj48dGV4dCBzdHlsZT0iIj48dHNwYW4gY2xhc3M9InJvdyIgeD0iMCIgZHk9IjFlbSIgeG1sOnNwYWNlPSJwcmVzZXJ2ZSI+MC4uKjwvdHNwYW4+PC90ZXh0PjwvZz48L2c+PGcgdHJhbnNmb3JtPSJ0cmFuc2xhdGUoMzUwLjkyMTg3NSwgMjA0LjUpIiBjbGFzcz0iZWRnZVRlcm1pbmFscyI+PGcgdHJhbnNmb3JtPSJ0cmFuc2xhdGUoLTIuODkwNjI1LCAtNikiIGNsYXNzPSJpbm5lciI+PC9nPjx0ZXh0IHN0eWxlPSIiPjx0c3BhbiBjbGFzcz0icm93IiB4PSIwIiBkeT0iMWVtIiB4bWw6c3BhY2U9InByZXNlcnZlIj4xPC90c3Bhbj48L3RleHQ+PC9nPjxnIHRyYW5zZm9ybT0idHJhbnNsYXRlKDEzMTMuMzc4OTA2MjUsIDUyNi41KSIgY2xhc3M9ImVkZ2VMYWJlbCI+PGcgdHJhbnNmb3JtPSJ0cmFuc2xhdGUoLTIxLjk4NDM3NSwgLTkuNSkiIGNsYXNzPSJsYWJlbCI+PHJlY3QgaGVpZ2h0PSIxOC40MzU4MTAwODkxMTEzMjgiIHdpZHRoPSI0NS4zMjI5MTAzMDg4Mzc4OSIgcnk9IjAiIHJ4PSIwIj48L3JlY3Q+PHRleHQgc3R5bGU9IiI+PHRzcGFuIGNsYXNzPSJyb3ciIHg9IjAiIGR5PSIxZW0iIHhtbDpzcGFjZT0icHJlc2VydmUiPmF1ZGl0czwvdHNwYW4+PC90ZXh0PjwvZz48L2c+PGcgdHJhbnNmb3JtPSJ0cmFuc2xhdGUoMTI5OC4zNzg5MDYyNSwgNDUyKSIgY2xhc3M9ImVkZ2VUZXJtaW5hbHMiPjxnIHRyYW5zZm9ybT0idHJhbnNsYXRlKC0yLjg5MDYyNSwgLTYpIiBjbGFzcz0iaW5uZXIiPjx0ZXh0IHN0eWxlPSIiPjx0c3BhbiBjbGFzcz0icm93IiB4PSIwIiBkeT0iMWVtIiB4bWw6c3BhY2U9InByZXNlcnZlIj4xPC90c3Bhbj48L3RleHQ+PC9nPjwvZz48ZyB0cmFuc2Zvcm09InRyYW5zbGF0ZSgxMzIxLjc4NjI0MjgyOTI5OSwgNTM5Ljg4Mzc5MTkxMjcxODUpIiBjbGFzcz0iZWRnZVRlcm1pbmFscyI+PGcgdHJhbnNmb3JtPSJ0cmFuc2xhdGUoLTguOTQ1MzEyNSwgLTYpIiBjbGFzcz0iaW5uZXIiPjwvZz48dGV4dCBzdHlsZT0iIj48dHNwYW4gY2xhc3M9InJvdyIgeD0iMCIgZHk9IjFlbSIgeG1sOnNwYWNlPSJwcmVzZXJ2ZSI+MC4uKjwvdHNwYW4+PC90ZXh0PjwvZz48L2c+PGcgY2xhc3M9Im5vZGVzIj48ZyB0cmFuc2Zvcm09InRyYW5zbGF0ZSgxMjk5LjU0Mjk2ODc1LCAxMDI3LjUpIiBpZD0iY2xhc3NpZC1MaXZlc3RvY2tIZWFsdGhQcm9kdWN0LTAiIGNsYXNzPSJub2RlIGRlZmF1bHQiPjxyZWN0IGhlaWdodD0iMzExIiB3aWR0aD0iMTk5LjQyMTg3NSIgeT0iLTE1NS41IiB4PSItOTkuNzEwOTM3NSIgY2xhc3M9Im91dGVyIHRpdGxlLXN0YXRlIj48L3JlY3Q+PGxpbmUgeTI9Ii0xMjQuNSIgeTE9Ii0xMjQuNSIgeDI9Ijk5LjcxMDkzNzUiIHgxPSItOTkuNzEwOTM3NSIgY2xhc3M9ImRpdmlkZXIiPjwvbGluZT48bGluZSB5Mj0iNzUuNSIgeTE9Ijc1LjUiIHgyPSI5OS43MTA5Mzc1IiB4MT0iLTk5LjcxMDkzNzUiIGNsYXNzPSJkaXZpZGVyIj48L2xpbmU+PGcgY2xhc3M9ImxhYmVsIj48dGV4dCBzdHlsZT0iIj48dHNwYW4gY2xhc3M9InRpdGxlLXJvdyIgeD0iMCIgZHk9IjFlbSIgeG1sOnNwYWNlPSJwcmVzZXJ2ZSI+PC90c3Bhbj48L3RleHQ+PHRleHQgdHJhbnNmb3JtPSJ0cmFuc2xhdGUoIC04OS40NTMxMjUsIC0xNDgpIiBjbGFzcz0iY2xhc3NUaXRsZSIgc3R5bGU9IiI+PHRzcGFuIGNsYXNzPSJ0aXRsZS1yb3ciIHg9IjAiIGR5PSIxZW0iIHhtbDpzcGFjZT0icHJlc2VydmUiPkxpdmVzdG9ja0hlYWx0aFByb2R1Y3Q8L3RzcGFuPjwvdGV4dD48dGV4dCB0cmFuc2Zvcm09InRyYW5zbGF0ZSggLTkyLjIxMDkzNzUsIC0xMTMpIiBzdHlsZT0iIj48dHNwYW4gY2xhc3M9InRpdGxlLXJvdyIgeD0iMCIgZHk9IjFlbSIgeG1sOnNwYWNlPSJwcmVzZXJ2ZSI+K1N0cmluZyBQcm9kdWN0SUQ8L3RzcGFuPjwvdGV4dD48dGV4dCB0cmFuc2Zvcm09InRyYW5zbGF0ZSggLTkyLjIxMDkzNzUsIC05MCkiIHN0eWxlPSIiPjx0c3BhbiBjbGFzcz0idGl0bGUtcm93IiB4PSIwIiBkeT0iMWVtIiB4bWw6c3BhY2U9InByZXNlcnZlIj4rU3RyaW5nIE5hbWU8L3RzcGFuPjwvdGV4dD48dGV4dCB0cmFuc2Zvcm09InRyYW5zbGF0ZSggLTkyLjIxMDkzNzUsIC02NykiIHN0eWxlPSIiPjx0c3BhbiBjbGFzcz0idGl0bGUtcm93IiB4PSIwIiBkeT0iMWVtIiB4bWw6c3BhY2U9InByZXNlcnZlIj4rU3RyaW5nIFR5cGU8L3RzcGFuPjwvdGV4dD48dGV4dCB0cmFuc2Zvcm09InRyYW5zbGF0ZSggLTkyLjIxMDkzNzUsIC00NCkiIHN0eWxlPSIiPjx0c3BhbiBjbGFzcz0idGl0bGUtcm93IiB4PSIwIiBkeT0iMWVtIiB4bWw6c3BhY2U9InByZXNlcnZlIj4rU3RyaW5nIFVzYWdlPC90c3Bhbj48L3RleHQ+PHRleHQgdHJhbnNmb3JtPSJ0cmFuc2xhdGUoIC05Mi4yMTA5Mzc1LCAtMjEpIiBzdHlsZT0iIj48dHNwYW4gY2xhc3M9InRpdGxlLXJvdyIgeD0iMCIgZHk9IjFlbSIgeG1sOnNwYWNlPSJwcmVzZXJ2ZSI+K1N0cmluZyBEb3NhZ2U8L3RzcGFuPjwvdGV4dD48dGV4dCB0cmFuc2Zvcm09InRyYW5zbGF0ZSggLTkyLjIxMDkzNzUsIDIpIiBzdHlsZT0iIj48dHNwYW4gY2xhc3M9InRpdGxlLXJvdyIgeD0iMCIgZHk9IjFlbSIgeG1sOnNwYWNlPSJwcmVzZXJ2ZSI+K0RhdGUgRXhwaXJhdGlvbkRhdGU8L3RzcGFuPjwvdGV4dD48dGV4dCB0cmFuc2Zvcm09InRyYW5zbGF0ZSggLTkyLjIxMDkzNzUsIDI1KSIgc3R5bGU9IiI+PHRzcGFuIGNsYXNzPSJ0aXRsZS1yb3ciIHg9IjAiIGR5PSIxZW0iIHhtbDpzcGFjZT0icHJlc2VydmUiPitTdHJpbmcgTWFudWZhY3R1cmVyPC90c3Bhbj48L3RleHQ+PHRleHQgdHJhbnNmb3JtPSJ0cmFuc2xhdGUoIC05Mi4yMTA5Mzc1LCA0OCkiIHN0eWxlPSIiPjx0c3BhbiBjbGFzcz0idGl0bGUtcm93IiB4PSIwIiBkeT0iMWVtIiB4bWw6c3BhY2U9InByZXNlcnZlIj4rU3RyaW5nIFN0b3JhZ2VDb25kaXRpb25zPC90c3Bhbj48L3RleHQ+PHRleHQgdHJhbnNmb3JtPSJ0cmFuc2xhdGUoIC05Mi4yMTA5Mzc1LCA4MykiIHN0eWxlPSIiPjx0c3BhbiBjbGFzcz0idGl0bGUtcm93IiB4PSIwIiBkeT0iMWVtIiB4bWw6c3BhY2U9InByZXNlcnZlIj4rdmFsaWRhdGVQcm9kdWN0KCk8L3RzcGFuPjwvdGV4dD48dGV4dCB0cmFuc2Zvcm09InRyYW5zbGF0ZSggLTkyLjIxMDkzNzUsIDEwNikiIHN0eWxlPSIiPjx0c3BhbiBjbGFzcz0idGl0bGUtcm93IiB4PSIwIiBkeT0iMWVtIiB4bWw6c3BhY2U9InByZXNlcnZlIj4rdXBkYXRlUHJvZHVjdEluZm8oKTwvdHNwYW4+PC90ZXh0Pjx0ZXh0IHRyYW5zZm9ybT0idHJhbnNsYXRlKCAtOTIuMjEwOTM3NSwgMTI5KSIgc3R5bGU9IiI+PHRzcGFuIGNsYXNzPSJ0aXRsZS1yb3ciIHg9IjAiIGR5PSIxZW0iIHhtbDpzcGFjZT0icHJlc2VydmUiPitnZXRQcm9kdWN0RGV0YWlscygpPC90c3Bhbj48L3RleHQ+PC9nPjwvZz48ZyB0cmFuc2Zvcm09InRyYW5zbGF0ZSgzNDAuOTIxODc1LCAzNTkuNSkiIGlkPSJjbGFzc2lkLVJlc2VhcmNoQW5kRGV2ZWxvcG1lbnQtMSIgY2xhc3M9Im5vZGUgZGVmYXVsdCI+PHJlY3QgaGVpZ2h0PSIyNjUiIHdpZHRoPSI0MTguNjQ4NDM3NSIgeT0iLTEzMi41IiB4PSItMjA5LjMyNDIxODc1IiBjbGFzcz0ib3V0ZXIgdGl0bGUtc3RhdGUiPjwvcmVjdD48bGluZSB5Mj0iLTEwMS41IiB5MT0iLTEwMS41IiB4Mj0iMjA5LjMyNDIxODc1IiB4MT0iLTIwOS4zMjQyMTg3NSIgY2xhc3M9ImRpdmlkZXIiPjwvbGluZT48bGluZSB5Mj0iMjkuNSIgeTE9IjI5LjUiIHgyPSIyMDkuMzI0MjE4NzUiIHgxPSItMjA5LjMyNDIxODc1IiBjbGFzcz0iZGl2aWRlciI+PC9saW5lPjxnIGNsYXNzPSJsYWJlbCI+PHRleHQgc3R5bGU9IiI+PHRzcGFuIGNsYXNzPSJ0aXRsZS1yb3ciIHg9IjAiIGR5PSIxZW0iIHhtbDpzcGFjZT0icHJlc2VydmUiPjwvdHNwYW4+PC90ZXh0Pjx0ZXh0IHRyYW5zZm9ybT0idHJhbnNsYXRlKCAtOTguMjczNDM3NSwgLTEyNSkiIGNsYXNzPSJjbGFzc1RpdGxlIiBzdHlsZT0iIj48dHNwYW4gY2xhc3M9InRpdGxlLXJvdyIgeD0iMCIgZHk9IjFlbSIgeG1sOnNwYWNlPSJwcmVzZXJ2ZSI+UmVzZWFyY2hBbmREZXZlbG9wbWVudDwvdHNwYW4+PC90ZXh0Pjx0ZXh0IHRyYW5zZm9ybT0idHJhbnNsYXRlKCAtMjAxLjgyNDIxODc1LCAtOTApIiBzdHlsZT0iIj48dHNwYW4gY2xhc3M9InRpdGxlLXJvdyIgeD0iMCIgZHk9IjFlbSIgeG1sOnNwYWNlPSJwcmVzZXJ2ZSI+K1N0cmluZyBQcm9qZWN0SUQ8L3RzcGFuPjwvdGV4dD48dGV4dCB0cmFuc2Zvcm09InRyYW5zbGF0ZSggLTIwMS44MjQyMTg3NSwgLTY3KSIgc3R5bGU9IiI+PHRzcGFuIGNsYXNzPSJ0aXRsZS1yb3ciIHg9IjAiIGR5PSIxZW0iIHhtbDpzcGFjZT0icHJlc2VydmUiPitTdHJpbmcgUHJvamVjdE5hbWU8L3RzcGFuPjwvdGV4dD48dGV4dCB0cmFuc2Zvcm09InRyYW5zbGF0ZSggLTIwMS44MjQyMTg3NSwgLTQ0KSIgc3R5bGU9IiI+PHRzcGFuIGNsYXNzPSJ0aXRsZS1yb3ciIHg9IjAiIGR5PSIxZW0iIHhtbDpzcGFjZT0icHJlc2VydmUiPitEYXRlIFN0YXJ0RGF0ZTwvdHNwYW4+PC90ZXh0Pjx0ZXh0IHRyYW5zZm9ybT0idHJhbnNsYXRlKCAtMjAxLjgyNDIxODc1LCAtMjEpIiBzdHlsZT0iIj48dHNwYW4gY2xhc3M9InRpdGxlLXJvdyIgeD0iMCIgZHk9IjFlbSIgeG1sOnNwYWNlPSJwcmVzZXJ2ZSI+K0RhdGUgRW5kRGF0ZTwvdHNwYW4+PC90ZXh0Pjx0ZXh0IHRyYW5zZm9ybT0idHJhbnNsYXRlKCAtMjAxLjgyNDIxODc1LCAyKSIgc3R5bGU9IiI+PHRzcGFuIGNsYXNzPSJ0aXRsZS1yb3ciIHg9IjAiIGR5PSIxZW0iIHhtbDpzcGFjZT0icHJlc2VydmUiPitTdHJpbmcgU3RhdHVzPC90c3Bhbj48L3RleHQ+PHRleHQgdHJhbnNmb3JtPSJ0cmFuc2xhdGUoIC0yMDEuODI0MjE4NzUsIDM3KSIgc3R5bGU9IiI+PHRzcGFuIGNsYXNzPSJ0aXRsZS1yb3ciIHg9IjAiIGR5PSIxZW0iIHhtbDpzcGFjZT0icHJlc2VydmUiPitpbml0aWF0ZVJlc2VhcmNoKHByb2plY3ROYW1lOiBTdHJpbmcsIHN0YXJ0RGF0ZTogRGF0ZSk8L3RzcGFuPjwvdGV4dD48dGV4dCB0cmFuc2Zvcm09InRyYW5zbGF0ZSggLTIwMS44MjQyMTg3NSwgNjApIiBzdHlsZT0iIj48dHNwYW4gY2xhc3M9InRpdGxlLXJvdyIgeD0iMCIgZHk9IjFlbSIgeG1sOnNwYWNlPSJwcmVzZXJ2ZSI+K2V2YWx1YXRlUmVzdWx0cyhwcm9qZWN0SUQ6IFN0cmluZyk8L3RzcGFuPjwvdGV4dD48dGV4dCB0cmFuc2Zvcm09InRyYW5zbGF0ZSggLTIwMS44MjQyMTg3NSwgODMpIiBzdHlsZT0iIj48dHNwYW4gY2xhc3M9InRpdGxlLXJvdyIgeD0iMCIgZHk9IjFlbSIgeG1sOnNwYWNlPSJwcmVzZXJ2ZSI+K2RldmVsb3BQcm9kdWN0KHByb2R1Y3ROYW1lOiBTdHJpbmcpPC90c3Bhbj48L3RleHQ+PHRleHQgdHJhbnNmb3JtPSJ0cmFuc2xhdGUoIC0yMDEuODI0MjE4NzUsIDEwNikiIHN0eWxlPSIiPjx0c3BhbiBjbGFzcz0idGl0bGUtcm93IiB4PSIwIiBkeT0iMWVtIiB4bWw6c3BhY2U9InByZXNlcnZlIj4rdHJhY2tQcm9ncmVzcyhwcm9qZWN0SUQ6IFN0cmluZyk8L3RzcGFuPjwvdGV4dD48L2c+PC9nPjxnIHRyYW5zZm9ybT0idHJhbnNsYXRlKDg2MS40Mjk2ODc1LCAxMDI3LjUpIiBpZD0iY2xhc3NpZC1DdXN0b21lclN1cHBvcnQtMiIgY2xhc3M9Im5vZGUgZGVmYXVsdCI+PHJlY3QgaGVpZ2h0PSIyNjUiIHdpZHRoPSI0MDMuMTY0MDYyNSIgeT0iLTEzMi41IiB4PSItMjAxLjU4MjAzMTI1IiBjbGFzcz0ib3V0ZXIgdGl0bGUtc3RhdGUiPjwvcmVjdD48bGluZSB5Mj0iLTEwMS41IiB5MT0iLTEwMS41IiB4Mj0iMjAxLjU4MjAzMTI1IiB4MT0iLTIwMS41ODIwMzEyNSIgY2xhc3M9ImRpdmlkZXIiPjwvbGluZT48bGluZSB5Mj0iNTIuNSIgeTE9IjUyLjUiIHgyPSIyMDEuNTgyMDMxMjUiIHgxPSItMjAxLjU4MjAzMTI1IiBjbGFzcz0iZGl2aWRlciI+PC9saW5lPjxnIGNsYXNzPSJsYWJlbCI+PHRleHQgc3R5bGU9IiI+PHRzcGFuIGNsYXNzPSJ0aXRsZS1yb3ciIHg9IjAiIGR5PSIxZW0iIHhtbDpzcGFjZT0icHJlc2VydmUiPjwvdHNwYW4+PC90ZXh0Pjx0ZXh0IHRyYW5zZm9ybT0idHJhbnNsYXRlKCAtNjUuMjM4MjgxMjUsIC0xMjUpIiBjbGFzcz0iY2xhc3NUaXRsZSIgc3R5bGU9IiI+PHRzcGFuIGNsYXNzPSJ0aXRsZS1yb3ciIHg9IjAiIGR5PSIxZW0iIHhtbDpzcGFjZT0icHJlc2VydmUiPkN1c3RvbWVyU3VwcG9ydDwvdHNwYW4+PC90ZXh0Pjx0ZXh0IHRyYW5zZm9ybT0idHJhbnNsYXRlKCAtMTk0LjA4MjAzMTI1LCAtOTApIiBzdHlsZT0iIj48dHNwYW4gY2xhc3M9InRpdGxlLXJvdyIgeD0iMCIgZHk9IjFlbSIgeG1sOnNwYWNlPSJwcmVzZXJ2ZSI+K1N0cmluZyBTdXBwb3J0VGlja2V0SUQ8L3RzcGFuPjwvdGV4dD48dGV4dCB0cmFuc2Zvcm09InRyYW5zbGF0ZSggLTE5NC4wODIwMzEyNSwgLTY3KSIgc3R5bGU9IiI+PHRzcGFuIGNsYXNzPSJ0aXRsZS1yb3ciIHg9IjAiIGR5PSIxZW0iIHhtbDpzcGFjZT0icHJlc2VydmUiPitTdHJpbmcgQ3VzdG9tZXJJRDwvdHNwYW4+PC90ZXh0Pjx0ZXh0IHRyYW5zZm9ybT0idHJhbnNsYXRlKCAtMTk0LjA4MjAzMTI1LCAtNDQpIiBzdHlsZT0iIj48dHNwYW4gY2xhc3M9InRpdGxlLXJvdyIgeD0iMCIgZHk9IjFlbSIgeG1sOnNwYWNlPSJwcmVzZXJ2ZSI+K1N0cmluZyBJc3N1ZURlc2NyaXB0aW9uPC90c3Bhbj48L3RleHQ+PHRleHQgdHJhbnNmb3JtPSJ0cmFuc2xhdGUoIC0xOTQuMDgyMDMxMjUsIC0yMSkiIHN0eWxlPSIiPjx0c3BhbiBjbGFzcz0idGl0bGUtcm93IiB4PSIwIiBkeT0iMWVtIiB4bWw6c3BhY2U9InByZXNlcnZlIj4rU3RyaW5nIFN0YXR1czwvdHNwYW4+PC90ZXh0Pjx0ZXh0IHRyYW5zZm9ybT0idHJhbnNsYXRlKCAtMTk0LjA4MjAzMTI1LCAyKSIgc3R5bGU9IiI+PHRzcGFuIGNsYXNzPSJ0aXRsZS1yb3ciIHg9IjAiIGR5PSIxZW0iIHhtbDpzcGFjZT0icHJlc2VydmUiPitEYXRlIENyZWF0ZWREYXRlPC90c3Bhbj48L3RleHQ+PHRleHQgdHJhbnNmb3JtPSJ0cmFuc2xhdGUoIC0xOTQuMDgyMDMxMjUsIDI1KSIgc3R5bGU9IiI+PHRzcGFuIGNsYXNzPSJ0aXRsZS1yb3ciIHg9IjAiIGR5PSIxZW0iIHhtbDpzcGFjZT0icHJlc2VydmUiPitEYXRlIFJlc29sdmVkRGF0ZTwvdHNwYW4+PC90ZXh0Pjx0ZXh0IHRyYW5zZm9ybT0idHJhbnNsYXRlKCAtMTk0LjA4MjAzMTI1LCA2MCkiIHN0eWxlPSIiPjx0c3BhbiBjbGFzcz0idGl0bGUtcm93IiB4PSIwIiBkeT0iMWVtIiB4bWw6c3BhY2U9InByZXNlcnZlIj4rbG9nSXNzdWUoY3VzdG9tZXJJRDogU3RyaW5nLCBpc3N1ZURlc2NyaXB0aW9uOiBTdHJpbmcpPC90c3Bhbj48L3RleHQ+PHRleHQgdHJhbnNmb3JtPSJ0cmFuc2xhdGUoIC0xOTQuMDgyMDMxMjUsIDgzKSIgc3R5bGU9IiI+PHRzcGFuIGNsYXNzPSJ0aXRsZS1yb3ciIHg9IjAiIGR5PSIxZW0iIHhtbDpzcGFjZT0icHJlc2VydmUiPityZXNvbHZlSXNzdWUodGlja2V0SUQ6IFN0cmluZyk8L3RzcGFuPjwvdGV4dD48dGV4dCB0cmFuc2Zvcm09InRyYW5zbGF0ZSggLTE5NC4wODIwMzEyNSwgMTA2KSIgc3R5bGU9IiI+PHRzcGFuIGNsYXNzPSJ0aXRsZS1yb3ciIHg9IjAiIGR5PSIxZW0iIHhtbDpzcGFjZT0icHJlc2VydmUiPit0cmFja0lzc3VlKHRpY2tldElEOiBTdHJpbmcpPC90c3Bhbj48L3RleHQ+PC9nPjwvZz48ZyB0cmFuc2Zvcm09InRyYW5zbGF0ZSgyNTAuNDI5Njg3NSwgMTAyNy41KSIgaWQ9ImNsYXNzaWQtU2FsZXMtMyIgY2xhc3M9Im5vZGUgZGVmYXVsdCI+PHJlY3QgaGVpZ2h0PSIyNjUiIHdpZHRoPSI0ODQuODU5Mzc1IiB5PSItMTMyLjUiIHg9Ii0yNDIuNDI5Njg3NSIgY2xhc3M9Im91dGVyIHRpdGxlLXN0YXRlIj48L3JlY3Q+PGxpbmUgeTI9Ii0xMDEuNSIgeTE9Ii0xMDEuNSIgeDI9IjI0Mi40Mjk2ODc1IiB4MT0iLTI0Mi40Mjk2ODc1IiBjbGFzcz0iZGl2aWRlciI+PC9saW5lPjxsaW5lIHkyPSI1Mi41IiB5MT0iNTIuNSIgeDI9IjI0Mi40Mjk2ODc1IiB4MT0iLTI0Mi40Mjk2ODc1IiBjbGFzcz0iZGl2aWRlciI+PC9saW5lPjxnIGNsYXNzPSJsYWJlbCI+PHRleHQgc3R5bGU9IiI+PHRzcGFuIGNsYXNzPSJ0aXRsZS1yb3ciIHg9IjAiIGR5PSIxZW0iIHhtbDpzcGFjZT0icHJlc2VydmUiPjwvdHNwYW4+PC90ZXh0Pjx0ZXh0IHRyYW5zZm9ybT0idHJhbnNsYXRlKCAtMTguODA4NTkzNzUsIC0xMjUpIiBjbGFzcz0iY2xhc3NUaXRsZSIgc3R5bGU9IiI+PHRzcGFuIGNsYXNzPSJ0aXRsZS1yb3ciIHg9IjAiIGR5PSIxZW0iIHhtbDpzcGFjZT0icHJlc2VydmUiPlNhbGVzPC90c3Bhbj48L3RleHQ+PHRleHQgdHJhbnNmb3JtPSJ0cmFuc2xhdGUoIC0yMzQuOTI5Njg3NSwgLTkwKSIgc3R5bGU9IiI+PHRzcGFuIGNsYXNzPSJ0aXRsZS1yb3ciIHg9IjAiIGR5PSIxZW0iIHhtbDpzcGFjZT0icHJlc2VydmUiPitTdHJpbmcgU2FsZUlEPC90c3Bhbj48L3RleHQ+PHRleHQgdHJhbnNmb3JtPSJ0cmFuc2xhdGUoIC0yMzQuOTI5Njg3NSwgLTY3KSIgc3R5bGU9IiI+PHRzcGFuIGNsYXNzPSJ0aXRsZS1yb3ciIHg9IjAiIGR5PSIxZW0iIHhtbDpzcGFjZT0icHJlc2VydmUiPitTdHJpbmcgUHJvZHVjdElEPC90c3Bhbj48L3RleHQ+PHRleHQgdHJhbnNmb3JtPSJ0cmFuc2xhdGUoIC0yMzQuOTI5Njg3NSwgLTQ0KSIgc3R5bGU9IiI+PHRzcGFuIGNsYXNzPSJ0aXRsZS1yb3ciIHg9IjAiIGR5PSIxZW0iIHhtbDpzcGFjZT0icHJlc2VydmUiPitTdHJpbmcgQ3VzdG9tZXJJRDwvdHNwYW4+PC90ZXh0Pjx0ZXh0IHRyYW5zZm9ybT0idHJhbnNsYXRlKCAtMjM0LjkyOTY4NzUsIC0yMSkiIHN0eWxlPSIiPjx0c3BhbiBjbGFzcz0idGl0bGUtcm93IiB4PSIwIiBkeT0iMWVtIiB4bWw6c3BhY2U9InByZXNlcnZlIj4rRGF0ZSBTYWxlRGF0ZTwvdHNwYW4+PC90ZXh0Pjx0ZXh0IHRyYW5zZm9ybT0idHJhbnNsYXRlKCAtMjM0LjkyOTY4NzUsIDIpIiBzdHlsZT0iIj48dHNwYW4gY2xhc3M9InRpdGxlLXJvdyIgeD0iMCIgZHk9IjFlbSIgeG1sOnNwYWNlPSJwcmVzZXJ2ZSI+K2ludCBRdWFudGl0eTwvdHNwYW4+PC90ZXh0Pjx0ZXh0IHRyYW5zZm9ybT0idHJhbnNsYXRlKCAtMjM0LjkyOTY4NzUsIDI1KSIgc3R5bGU9IiI+PHRzcGFuIGNsYXNzPSJ0aXRsZS1yb3ciIHg9IjAiIGR5PSIxZW0iIHhtbDpzcGFjZT0icHJlc2VydmUiPitTdHJpbmcgU2FsZXNSZWdpb248L3RzcGFuPjwvdGV4dD48dGV4dCB0cmFuc2Zvcm09InRyYW5zbGF0ZSggLTIzNC45Mjk2ODc1LCA2MCkiIHN0eWxlPSIiPjx0c3BhbiBjbGFzcz0idGl0bGUtcm93IiB4PSIwIiBkeT0iMWVtIiB4bWw6c3BhY2U9InByZXNlcnZlIj4rcHJvY2Vzc1NhbGUocHJvZHVjdElEOiBTdHJpbmcsIGN1c3RvbWVySUQ6IFN0cmluZywgcXVhbnRpdHk6IGludCk8L3RzcGFuPjwvdGV4dD48dGV4dCB0cmFuc2Zvcm09InRyYW5zbGF0ZSggLTIzNC45Mjk2ODc1LCA4MykiIHN0eWxlPSIiPjx0c3BhbiBjbGFzcz0idGl0bGUtcm93IiB4PSIwIiBkeT0iMWVtIiB4bWw6c3BhY2U9InByZXNlcnZlIj4rdHJhY2tTYWxlcyhzYWxlc0lEOiBTdHJpbmcpPC90c3Bhbj48L3RleHQ+PHRleHQgdHJhbnNmb3JtPSJ0cmFuc2xhdGUoIC0yMzQuOTI5Njg3NSwgMTA2KSIgc3R5bGU9IiI+PHRzcGFuIGNsYXNzPSJ0aXRsZS1yb3ciIHg9IjAiIGR5PSIxZW0iIHhtbDpzcGFjZT0icHJlc2VydmUiPitnZW5lcmF0ZVJlcG9ydChzdGFydERhdGU6IERhdGUsIGVuZERhdGU6IERhdGUpPC90c3Bhbj48L3RleHQ+PC9nPjwvZz48ZyB0cmFuc2Zvcm09InRyYW5zbGF0ZSgxMjk5LjU0Mjk2ODc1LCA2ODIpIiBpZD0iY2xhc3NpZC1Db21wbGlhbmNlLTQiIGNsYXNzPSJub2RlIGRlZmF1bHQiPjxyZWN0IGhlaWdodD0iMjQyIiB3aWR0aD0iMzA3LjgyODEyNSIgeT0iLTEyMSIgeD0iLTE1My45MTQwNjI1IiBjbGFzcz0ib3V0ZXIgdGl0bGUtc3RhdGUiPjwvcmVjdD48bGluZSB5Mj0iLTkwIiB5MT0iLTkwIiB4Mj0iMTUzLjkxNDA2MjUiIHgxPSItMTUzLjkxNDA2MjUiIGNsYXNzPSJkaXZpZGVyIj48L2xpbmU+PGxpbmUgeTI9IjQxIiB5MT0iNDEiIHgyPSIxNTMuOTE0MDYyNSIgeDE9Ii0xNTMuOTE0MDYyNSIgY2xhc3M9ImRpdmlkZXIiPjwvbGluZT48ZyBjbGFzcz0ibGFiZWwiPjx0ZXh0IHN0eWxlPSIiPjx0c3BhbiBjbGFzcz0idGl0bGUtcm93IiB4PSIwIiBkeT0iMWVtIiB4bWw6c3BhY2U9InByZXNlcnZlIj48L3RzcGFuPjwvdGV4dD48dGV4dCB0cmFuc2Zvcm09InRyYW5zbGF0ZSggLTQzLjM4MjgxMjUsIC0xMTMuNSkiIGNsYXNzPSJjbGFzc1RpdGxlIiBzdHlsZT0iIj48dHNwYW4gY2xhc3M9InRpdGxlLXJvdyIgeD0iMCIgZHk9IjFlbSIgeG1sOnNwYWNlPSJwcmVzZXJ2ZSI+Q29tcGxpYW5jZTwvdHNwYW4+PC90ZXh0Pjx0ZXh0IHRyYW5zZm9ybT0idHJhbnNsYXRlKCAtMTQ2LjQxNDA2MjUsIC03OC41KSIgc3R5bGU9IiI+PHRzcGFuIGNsYXNzPSJ0aXRsZS1yb3ciIHg9IjAiIGR5PSIxZW0iIHhtbDpzcGFjZT0icHJlc2VydmUiPitTdHJpbmcgUmVndWxhdGlvbklEPC90c3Bhbj48L3RleHQ+PHRleHQgdHJhbnNmb3JtPSJ0cmFuc2xhdGUoIC0xNDYuNDE0MDYyNSwgLTU1LjUpIiBzdHlsZT0iIj48dHNwYW4gY2xhc3M9InRpdGxlLXJvdyIgeD0iMCIgZHk9IjFlbSIgeG1sOnNwYWNlPSJwcmVzZXJ2ZSI+K1N0cmluZyBSZWd1bGF0aW9uTmFtZTwvdHNwYW4+PC90ZXh0Pjx0ZXh0IHRyYW5zZm9ybT0idHJhbnNsYXRlKCAtMTQ2LjQxNDA2MjUsIC0zMi41KSIgc3R5bGU9IiI+PHRzcGFuIGNsYXNzPSJ0aXRsZS1yb3ciIHg9IjAiIGR5PSIxZW0iIHhtbDpzcGFjZT0icHJlc2VydmUiPitTdHJpbmcgRGVzY3JpcHRpb248L3RzcGFuPjwvdGV4dD48dGV4dCB0cmFuc2Zvcm09InRyYW5zbGF0ZSggLTE0Ni40MTQwNjI1LCAtOS41KSIgc3R5bGU9IiI+PHRzcGFuIGNsYXNzPSJ0aXRsZS1yb3ciIHg9IjAiIGR5PSIxZW0iIHhtbDpzcGFjZT0icHJlc2VydmUiPitTdHJpbmcgQ29tcGxpYW5jZVN0YXR1czwvdHNwYW4+PC90ZXh0Pjx0ZXh0IHRyYW5zZm9ybT0idHJhbnNsYXRlKCAtMTQ2LjQxNDA2MjUsIDEzLjUpIiBzdHlsZT0iIj48dHNwYW4gY2xhc3M9InRpdGxlLXJvdyIgeD0iMCIgZHk9IjFlbSIgeG1sOnNwYWNlPSJwcmVzZXJ2ZSI+K1N0cmluZyBSZXBvcnRVUkw8L3RzcGFuPjwvdGV4dD48dGV4dCB0cmFuc2Zvcm09InRyYW5zbGF0ZSggLTE0Ni40MTQwNjI1LCA0OC41KSIgc3R5bGU9IiI+PHRzcGFuIGNsYXNzPSJ0aXRsZS1yb3ciIHg9IjAiIGR5PSIxZW0iIHhtbDpzcGFjZT0icHJlc2VydmUiPitjaGVja0NvbXBsaWFuY2UocHJvZHVjdElEOiBTdHJpbmcpPC90c3Bhbj48L3RleHQ+PHRleHQgdHJhbnNmb3JtPSJ0cmFuc2xhdGUoIC0xNDYuNDE0MDYyNSwgNzEuNSkiIHN0eWxlPSIiPjx0c3BhbiBjbGFzcz0idGl0bGUtcm93IiB4PSIwIiBkeT0iMWVtIiB4bWw6c3BhY2U9InByZXNlcnZlIj4rc3VibWl0UmVwb3J0cyhyZXBvcnRVUkw6IFN0cmluZyk8L3RzcGFuPjwvdGV4dD48dGV4dCB0cmFuc2Zvcm09InRyYW5zbGF0ZSggLTE0Ni40MTQwNjI1LCA5NC41KSIgc3R5bGU9IiI+PHRzcGFuIGNsYXNzPSJ0aXRsZS1yb3ciIHg9IjAiIGR5PSIxZW0iIHhtbDpzcGFjZT0icHJlc2VydmUiPit1cGRhdGVDb21wbGlhbmNlU3RhdHVzKHN0YXR1czogU3RyaW5nKTwvdHNwYW4+PC90ZXh0PjwvZz48L2c+PGcgdHJhbnNmb3JtPSJ0cmFuc2xhdGUoMTk1Ljc5Mjk2ODc1LCAxMzYxLjUpIiBpZD0iY2xhc3NpZC1JbnZlbnRvcnlNYW5hZ2VtZW50LTUiIGNsYXNzPSJub2RlIGRlZmF1bHQiPjxyZWN0IGhlaWdodD0iMjE5IiB3aWR0aD0iMzY2Ljk1MzEyNSIgeT0iLTEwOS41IiB4PSItMTgzLjQ3NjU2MjUiIGNsYXNzPSJvdXRlciB0aXRsZS1zdGF0ZSI+PC9yZWN0PjxsaW5lIHkyPSItNzguNSIgeTE9Ii03OC41IiB4Mj0iMTgzLjQ3NjU2MjUiIHgxPSItMTgzLjQ3NjU2MjUiIGNsYXNzPSJkaXZpZGVyIj48L2xpbmU+PGxpbmUgeTI9IjI5LjUiIHkxPSIyOS41IiB4Mj0iMTgzLjQ3NjU2MjUiIHgxPSItMTgzLjQ3NjU2MjUiIGNsYXNzPSJkaXZpZGVyIj48L2xpbmU+PGcgY2xhc3M9ImxhYmVsIj48dGV4dCBzdHlsZT0iIj48dHNwYW4gY2xhc3M9InRpdGxlLXJvdyIgeD0iMCIgZHk9IjFlbSIgeG1sOnNwYWNlPSJwcmVzZXJ2ZSI+PC90c3Bhbj48L3RleHQ+PHRleHQgdHJhbnNmb3JtPSJ0cmFuc2xhdGUoIC04My4zOTA2MjUsIC0xMDIpIiBjbGFzcz0iY2xhc3NUaXRsZSIgc3R5bGU9IiI+PHRzcGFuIGNsYXNzPSJ0aXRsZS1yb3ciIHg9IjAiIGR5PSIxZW0iIHhtbDpzcGFjZT0icHJlc2VydmUiPkludmVudG9yeU1hbmFnZW1lbnQ8L3RzcGFuPjwvdGV4dD48dGV4dCB0cmFuc2Zvcm09InRyYW5zbGF0ZSggLTE3NS45NzY1NjI1LCAtNjcpIiBzdHlsZT0iIj48dHNwYW4gY2xhc3M9InRpdGxlLXJvdyIgeD0iMCIgZHk9IjFlbSIgeG1sOnNwYWNlPSJwcmVzZXJ2ZSI+K1N0cmluZyBQcm9kdWN0SUQ8L3RzcGFuPjwvdGV4dD48dGV4dCB0cmFuc2Zvcm09InRyYW5zbGF0ZSggLTE3NS45NzY1NjI1LCAtNDQpIiBzdHlsZT0iIj48dHNwYW4gY2xhc3M9InRpdGxlLXJvdyIgeD0iMCIgZHk9IjFlbSIgeG1sOnNwYWNlPSJwcmVzZXJ2ZSI+K2ludCBTdG9ja0xldmVsPC90c3Bhbj48L3RleHQ+PHRleHQgdHJhbnNmb3JtPSJ0cmFuc2xhdGUoIC0xNzUuOTc2NTYyNSwgLTIxKSIgc3R5bGU9IiI+PHRzcGFuIGNsYXNzPSJ0aXRsZS1yb3ciIHg9IjAiIGR5PSIxZW0iIHhtbDpzcGFjZT0icHJlc2VydmUiPitpbnQgUmVvcmRlckxldmVsPC90c3Bhbj48L3RleHQ+PHRleHQgdHJhbnNmb3JtPSJ0cmFuc2xhdGUoIC0xNzUuOTc2NTYyNSwgMikiIHN0eWxlPSIiPjx0c3BhbiBjbGFzcz0idGl0bGUtcm93IiB4PSIwIiBkeT0iMWVtIiB4bWw6c3BhY2U9InByZXNlcnZlIj4rRGF0ZSBMYXN0VXBkYXRlZDwvdHNwYW4+PC90ZXh0Pjx0ZXh0IHRyYW5zZm9ybT0idHJhbnNsYXRlKCAtMTc1Ljk3NjU2MjUsIDM3KSIgc3R5bGU9IiI+PHRzcGFuIGNsYXNzPSJ0aXRsZS1yb3ciIHg9IjAiIGR5PSIxZW0iIHhtbDpzcGFjZT0icHJlc2VydmUiPit1cGRhdGVTdG9jayhwcm9kdWN0SUQ6IFN0cmluZywgcXVhbnRpdHk6IGludCk8L3RzcGFuPjwvdGV4dD48dGV4dCB0cmFuc2Zvcm09InRyYW5zbGF0ZSggLTE3NS45NzY1NjI1LCA2MCkiIHN0eWxlPSIiPjx0c3BhbiBjbGFzcz0idGl0bGUtcm93IiB4PSIwIiBkeT0iMWVtIiB4bWw6c3BhY2U9InByZXNlcnZlIj4rcmVvcmRlclByb2R1Y3QocHJvZHVjdElEOiBTdHJpbmcsIHF1YW50aXR5OiBpbnQpPC90c3Bhbj48L3RleHQ+PHRleHQgdHJhbnNmb3JtPSJ0cmFuc2xhdGUoIC0xNzUuOTc2NTYyNSwgODMpIiBzdHlsZT0iIj48dHNwYW4gY2xhc3M9InRpdGxlLXJvdyIgeD0iMCIgZHk9IjFlbSIgeG1sOnNwYWNlPSJwcmVzZXJ2ZSI+K2NoZWNrU3RvY2tMZXZlbChwcm9kdWN0SUQ6IFN0cmluZyk8L3RzcGFuPjwvdGV4dD48L2c+PC9nPjxnIHRyYW5zZm9ybT0idHJhbnNsYXRlKDY2Ni4wNDQ5MjE4NzUsIDEzNjEuNSkiIGlkPSJjbGFzc2lkLVZldGVyaW5hcmlhbnMtNiIgY2xhc3M9Im5vZGUgZGVmYXVsdCI+PHJlY3QgaGVpZ2h0PSIxNTAiIHdpZHRoPSI0MjYuMDMxMjUiIHk9Ii03NSIgeD0iLTIxMy4wMTU2MjUiIGNsYXNzPSJvdXRlciB0aXRsZS1zdGF0ZSI+PC9yZWN0PjxsaW5lIHkyPSItNDQiIHkxPSItNDQiIHgyPSIyMTMuMDE1NjI1IiB4MT0iLTIxMy4wMTU2MjUiIGNsYXNzPSJkaXZpZGVyIj48L2xpbmU+PGxpbmUgeTI9IjQxIiB5MT0iNDEiIHgyPSIyMTMuMDE1NjI1IiB4MT0iLTIxMy4wMTU2MjUiIGNsYXNzPSJkaXZpZGVyIj48L2xpbmU+PGcgY2xhc3M9ImxhYmVsIj48dGV4dCBzdHlsZT0iIj48dHNwYW4gY2xhc3M9InRpdGxlLXJvdyIgeD0iMCIgZHk9IjFlbSIgeG1sOnNwYWNlPSJwcmVzZXJ2ZSI+PC90c3Bhbj48L3RleHQ+PHRleHQgdHJhbnNmb3JtPSJ0cmFuc2xhdGUoIC01MC40NzY1NjI1LCAtNjcuNSkiIGNsYXNzPSJjbGFzc1RpdGxlIiBzdHlsZT0iIj48dHNwYW4gY2xhc3M9InRpdGxlLXJvdyIgeD0iMCIgZHk9IjFlbSIgeG1sOnNwYWNlPSJwcmVzZXJ2ZSI+VmV0ZXJpbmFyaWFuczwvdHNwYW4+PC90ZXh0Pjx0ZXh0IHRyYW5zZm9ybT0idHJhbnNsYXRlKCAtMjA1LjUxNTYyNSwgLTMyLjUpIiBzdHlsZT0iIj48dHNwYW4gY2xhc3M9InRpdGxlLXJvdyIgeD0iMCIgZHk9IjFlbSIgeG1sOnNwYWNlPSJwcmVzZXJ2ZSI+K1N0cmluZyBWZXRlcmluYXJpYW5JRDwvdHNwYW4+PC90ZXh0Pjx0ZXh0IHRyYW5zZm9ybT0idHJhbnNsYXRlKCAtMjA1LjUxNTYyNSwgLTkuNSkiIHN0eWxlPSIiPjx0c3BhbiBjbGFzcz0idGl0bGUtcm93IiB4PSIwIiBkeT0iMWVtIiB4bWw6c3BhY2U9InByZXNlcnZlIj4rU3RyaW5nIE5hbWU8L3RzcGFuPjwvdGV4dD48dGV4dCB0cmFuc2Zvcm09InRyYW5zbGF0ZSggLTIwNS41MTU2MjUsIDEzLjUpIiBzdHlsZT0iIj48dHNwYW4gY2xhc3M9InRpdGxlLXJvdyIgeD0iMCIgZHk9IjFlbSIgeG1sOnNwYWNlPSJwcmVzZXJ2ZSI+K1N0cmluZyBTcGVjaWFsaXphdGlvbjwvdHNwYW4+PC90ZXh0Pjx0ZXh0IHRyYW5zZm9ybT0idHJhbnNsYXRlKCAtMjA1LjUxNTYyNSwgNDguNSkiIHN0eWxlPSIiPjx0c3BhbiBjbGFzcz0idGl0bGUtcm93IiB4PSIwIiBkeT0iMWVtIiB4bWw6c3BhY2U9InByZXNlcnZlIj4rcHJvdmlkZVRyZWF0bWVudChsaXZlc3RvY2tJRDogU3RyaW5nLCBwcm9kdWN0SUQ6IFN0cmluZyk8L3RzcGFuPjwvdGV4dD48L2c+PC9nPjxnIHRyYW5zZm9ybT0idHJhbnNsYXRlKDExMjQuOTA4MjAzMTI1LCAxMzYxLjUpIiBpZD0iY2xhc3NpZC1GYXJtZXJzLTciIGNsYXNzPSJub2RlIGRlZmF1bHQiPjxyZWN0IGhlaWdodD0iMTUwIiB3aWR0aD0iMzkxLjY5NTMxMjUiIHk9Ii03NSIgeD0iLTE5NS44NDc2NTYyNSIgY2xhc3M9Im91dGVyIHRpdGxlLXN0YXRlIj48L3JlY3Q+PGxpbmUgeTI9Ii00NCIgeTE9Ii00NCIgeDI9IjE5NS44NDc2NTYyNSIgeDE9Ii0xOTUuODQ3NjU2MjUiIGNsYXNzPSJkaXZpZGVyIj48L2xpbmU+PGxpbmUgeTI9IjQxIiB5MT0iNDEiIHgyPSIxOTUuODQ3NjU2MjUiIHgxPSItMTk1Ljg0NzY1NjI1IiBjbGFzcz0iZGl2aWRlciI+PC9saW5lPjxnIGNsYXNzPSJsYWJlbCI+PHRleHQgc3R5bGU9IiI+PHRzcGFuIGNsYXNzPSJ0aXRsZS1yb3ciIHg9IjAiIGR5PSIxZW0iIHhtbDpzcGFjZT0icHJlc2VydmUiPjwvdHNwYW4+PC90ZXh0Pjx0ZXh0IHRyYW5zZm9ybT0idHJhbnNsYXRlKCAtMzAuMzYzMjgxMjUsIC02Ny41KSIgY2xhc3M9ImNsYXNzVGl0bGUiIHN0eWxlPSIiPjx0c3BhbiBjbGFzcz0idGl0bGUtcm93IiB4PSIwIiBkeT0iMWVtIiB4bWw6c3BhY2U9InByZXNlcnZlIj5GYXJtZXJzPC90c3Bhbj48L3RleHQ+PHRleHQgdHJhbnNmb3JtPSJ0cmFuc2xhdGUoIC0xODguMzQ3NjU2MjUsIC0zMi41KSIgc3R5bGU9IiI+PHRzcGFuIGNsYXNzPSJ0aXRsZS1yb3ciIHg9IjAiIGR5PSIxZW0iIHhtbDpzcGFjZT0icHJlc2VydmUiPitTdHJpbmcgRmFybWVySUQ8L3RzcGFuPjwvdGV4dD48dGV4dCB0cmFuc2Zvcm09InRyYW5zbGF0ZSggLTE4OC4zNDc2NTYyNSwgLTkuNSkiIHN0eWxlPSIiPjx0c3BhbiBjbGFzcz0idGl0bGUtcm93IiB4PSIwIiBkeT0iMWVtIiB4bWw6c3BhY2U9InByZXNlcnZlIj4rU3RyaW5nIE5hbWU8L3RzcGFuPjwvdGV4dD48dGV4dCB0cmFuc2Zvcm09InRyYW5zbGF0ZSggLTE4OC4zNDc2NTYyNSwgMTMuNSkiIHN0eWxlPSIiPjx0c3BhbiBjbGFzcz0idGl0bGUtcm93IiB4PSIwIiBkeT0iMWVtIiB4bWw6c3BhY2U9InByZXNlcnZlIj4rU3RyaW5nIEZhcm1Mb2NhdGlvbjwvdHNwYW4+PC90ZXh0Pjx0ZXh0IHRyYW5zZm9ybT0idHJhbnNsYXRlKCAtMTg4LjM0NzY1NjI1LCA0OC41KSIgc3R5bGU9IiI+PHRzcGFuIGNsYXNzPSJ0aXRsZS1yb3ciIHg9IjAiIGR5PSIxZW0iIHhtbDpzcGFjZT0icHJlc2VydmUiPithcHBseVByb2R1Y3QobGl2ZXN0b2NrSUQ6IFN0cmluZywgcHJvZHVjdElEOiBTdHJpbmcpPC90c3Bhbj48L3RleHQ+PC9nPjwvZz48ZyB0cmFuc2Zvcm09InRyYW5zbGF0ZSgzNDAuOTIxODc1LCA4MykiIGlkPSJjbGFzc2lkLVJlc2VhcmNoZXJzLTgiIGNsYXNzPSJub2RlIGRlZmF1bHQiPjxyZWN0IGhlaWdodD0iMTUwIiB3aWR0aD0iMzIzLjM1MTU2MjUiIHk9Ii03NSIgeD0iLTE2MS42NzU3ODEyNSIgY2xhc3M9Im91dGVyIHRpdGxlLXN0YXRlIj48L3JlY3Q+PGxpbmUgeTI9Ii00NCIgeTE9Ii00NCIgeDI9IjE2MS42NzU3ODEyNSIgeDE9Ii0xNjEuNjc1NzgxMjUiIGNsYXNzPSJkaXZpZGVyIj48L2xpbmU+PGxpbmUgeTI9IjQxIiB5MT0iNDEiIHgyPSIxNjEuNjc1NzgxMjUiIHgxPSItMTYxLjY3NTc4MTI1IiBjbGFzcz0iZGl2aWRlciI+PC9saW5lPjxnIGNsYXNzPSJsYWJlbCI+PHRleHQgc3R5bGU9IiI+PHRzcGFuIGNsYXNzPSJ0aXRsZS1yb3ciIHg9IjAiIGR5PSIxZW0iIHhtbDpzcGFjZT0icHJlc2VydmUiPjwvdHNwYW4+PC90ZXh0Pjx0ZXh0IHRyYW5zZm9ybT0idHJhbnNsYXRlKCAtNDUuNTU4NTkzNzUsIC02Ny41KSIgY2xhc3M9ImNsYXNzVGl0bGUiIHN0eWxlPSIiPjx0c3BhbiBjbGFzcz0idGl0bGUtcm93IiB4PSIwIiBkeT0iMWVtIiB4bWw6c3BhY2U9InByZXNlcnZlIj5SZXNlYXJjaGVyczwvdHNwYW4+PC90ZXh0Pjx0ZXh0IHRyYW5zZm9ybT0idHJhbnNsYXRlKCAtMTU0LjE3NTc4MTI1LCAtMzIuNSkiIHN0eWxlPSIiPjx0c3BhbiBjbGFzcz0idGl0bGUtcm93IiB4PSIwIiBkeT0iMWVtIiB4bWw6c3BhY2U9InByZXNlcnZlIj4rU3RyaW5nIFJlc2VhcmNoZXJJRDwvdHNwYW4+PC90ZXh0Pjx0ZXh0IHRyYW5zZm9ybT0idHJhbnNsYXRlKCAtMTU0LjE3NTc4MTI1LCAtOS41KSIgc3R5bGU9IiI+PHRzcGFuIGNsYXNzPSJ0aXRsZS1yb3ciIHg9IjAiIGR5PSIxZW0iIHhtbDpzcGFjZT0icHJlc2VydmUiPitTdHJpbmcgTmFtZTwvdHNwYW4+PC90ZXh0Pjx0ZXh0IHRyYW5zZm9ybT0idHJhbnNsYXRlKCAtMTU0LjE3NTc4MTI1LCAxMy41KSIgc3R5bGU9IiI+PHRzcGFuIGNsYXNzPSJ0aXRsZS1yb3ciIHg9IjAiIGR5PSIxZW0iIHhtbDpzcGFjZT0icHJlc2VydmUiPitTdHJpbmcgRmllbGRPZlN0dWR5PC90c3Bhbj48L3RleHQ+PHRleHQgdHJhbnNmb3JtPSJ0cmFuc2xhdGUoIC0xNTQuMTc1NzgxMjUsIDQ4LjUpIiBzdHlsZT0iIj48dHNwYW4gY2xhc3M9InRpdGxlLXJvdyIgeD0iMCIgZHk9IjFlbSIgeG1sOnNwYWNlPSJwcmVzZXJ2ZSI+K2NvbmR1Y3RFeHBlcmltZW50KGV4cGVyaW1lbnRJRDogU3RyaW5nKTwvdHNwYW4+PC90ZXh0PjwvZz48L2c+PGcgdHJhbnNmb3JtPSJ0cmFuc2xhdGUoNjczLjE0NDUzMTI1LCA4MykiIGlkPSJjbGFzc2lkLVNhbGVzUmVwcmVzZW50YXRpdmVzLTkiIGNsYXNzPSJub2RlIGRlZmF1bHQiPjxyZWN0IGhlaWdodD0iMTUwIiB3aWR0aD0iMjQxLjA5Mzc1IiB5PSItNzUiIHg9Ii0xMjAuNTQ2ODc1IiBjbGFzcz0ib3V0ZXIgdGl0bGUtc3RhdGUiPjwvcmVjdD48bGluZSB5Mj0iLTQ0IiB5MT0iLTQ0IiB4Mj0iMTIwLjU0Njg3NSIgeDE9Ii0xMjAuNTQ2ODc1IiBjbGFzcz0iZGl2aWRlciI+PC9saW5lPjxsaW5lIHkyPSI0MSIgeTE9IjQxIiB4Mj0iMTIwLjU0Njg3NSIgeDE9Ii0xMjAuNTQ2ODc1IiBjbGFzcz0iZGl2aWRlciI+PC9saW5lPjxnIGNsYXNzPSJsYWJlbCI+PHRleHQgc3R5bGU9IiI+PHRzcGFuIGNsYXNzPSJ0aXRsZS1yb3ciIHg9IjAiIGR5PSIxZW0iIHhtbDpzcGFjZT0icHJlc2VydmUiPjwvdHNwYW4+PC90ZXh0Pjx0ZXh0IHRyYW5zZm9ybT0idHJhbnNsYXRlKCAtNzguOTg4MjgxMjUsIC02Ny41KSIgY2xhc3M9ImNsYXNzVGl0bGUiIHN0eWxlPSIiPjx0c3BhbiBjbGFzcz0idGl0bGUtcm93IiB4PSIwIiBkeT0iMWVtIiB4bWw6c3BhY2U9InByZXNlcnZlIj5TYWxlc1JlcHJlc2VudGF0aXZlczwvdHNwYW4+PC90ZXh0Pjx0ZXh0IHRyYW5zZm9ybT0idHJhbnNsYXRlKCAtMTEzLjA0Njg3NSwgLTMyLjUpIiBzdHlsZT0iIj48dHNwYW4gY2xhc3M9InRpdGxlLXJvdyIgeD0iMCIgZHk9IjFlbSIgeG1sOnNwYWNlPSJwcmVzZXJ2ZSI+K1N0cmluZyBSZXBJRDwvdHNwYW4+PC90ZXh0Pjx0ZXh0IHRyYW5zZm9ybT0idHJhbnNsYXRlKCAtMTEzLjA0Njg3NSwgLTkuNSkiIHN0eWxlPSIiPjx0c3BhbiBjbGFzcz0idGl0bGUtcm93IiB4PSIwIiBkeT0iMWVtIiB4bWw6c3BhY2U9InByZXNlcnZlIj4rU3RyaW5nIE5hbWU8L3RzcGFuPjwvdGV4dD48dGV4dCB0cmFuc2Zvcm09InRyYW5zbGF0ZSggLTExMy4wNDY4NzUsIDEzLjUpIiBzdHlsZT0iIj48dHNwYW4gY2xhc3M9InRpdGxlLXJvdyIgeD0iMCIgZHk9IjFlbSIgeG1sOnNwYWNlPSJwcmVzZXJ2ZSI+K1N0cmluZyBUZXJyaXRvcnk8L3RzcGFuPjwvdGV4dD48dGV4dCB0cmFuc2Zvcm09InRyYW5zbGF0ZSggLTExMy4wNDY4NzUsIDQ4LjUpIiBzdHlsZT0iIj48dHNwYW4gY2xhc3M9InRpdGxlLXJvdyIgeD0iMCIgZHk9IjFlbSIgeG1sOnNwYWNlPSJwcmVzZXJ2ZSI+K21hbmFnZUNsaWVudChjbGllbnRJRDogU3RyaW5nKTwvdHNwYW4+PC90ZXh0PjwvZz48L2c+PGcgdHJhbnNmb3JtPSJ0cmFuc2xhdGUoMTMxMy4zNzg5MDYyNSwgMzU5LjUpIiBpZD0iY2xhc3NpZC1SZWd1bGF0b3J5QWdlbmNpZXMtMTAiIGNsYXNzPSJub2RlIGRlZmF1bHQiPjxyZWN0IGhlaWdodD0iMTUwIiB3aWR0aD0iMjQ5LjMyODEyNSIgeT0iLTc1IiB4PSItMTI0LjY2NDA2MjUiIGNsYXNzPSJvdXRlciB0aXRsZS1zdGF0ZSI+PC9yZWN0PjxsaW5lIHkyPSItNDQiIHkxPSItNDQiIHgyPSIxMjQuNjY0MDYyNSIgeDE9Ii0xMjQuNjY0MDYyNSIgY2xhc3M9ImRpdmlkZXIiPjwvbGluZT48bGluZSB5Mj0iNDEiIHkxPSI0MSIgeDI9IjEyNC42NjQwNjI1IiB4MT0iLTEyNC42NjQwNjI1IiBjbGFzcz0iZGl2aWRlciI+PC9saW5lPjxnIGNsYXNzPSJsYWJlbCI+PHRleHQgc3R5bGU9IiI+PHRzcGFuIGNsYXNzPSJ0aXRsZS1yb3ciIHg9IjAiIGR5PSIxZW0iIHhtbDpzcGFjZT0icHJlc2VydmUiPjwvdHNwYW4+PC90ZXh0Pjx0ZXh0IHRyYW5zZm9ybT0idHJhbnNsYXRlKCAtNzMuMjE0ODQzNzUsIC02Ny41KSIgY2xhc3M9ImNsYXNzVGl0bGUiIHN0eWxlPSIiPjx0c3BhbiBjbGFzcz0idGl0bGUtcm93IiB4PSIwIiBkeT0iMWVtIiB4bWw6c3BhY2U9InByZXNlcnZlIj5SZWd1bGF0b3J5QWdlbmNpZXM8L3RzcGFuPjwvdGV4dD48dGV4dCB0cmFuc2Zvcm09InRyYW5zbGF0ZSggLTExNy4xNjQwNjI1LCAtMzIuNSkiIHN0eWxlPSIiPjx0c3BhbiBjbGFzcz0idGl0bGUtcm93IiB4PSIwIiBkeT0iMWVtIiB4bWw6c3BhY2U9InByZXNlcnZlIj4rU3RyaW5nIEFnZW5jeUlEPC90c3Bhbj48L3RleHQ+PHRleHQgdHJhbnNmb3JtPSJ0cmFuc2xhdGUoIC0xMTcuMTY0MDYyNSwgLTkuNSkiIHN0eWxlPSIiPjx0c3BhbiBjbGFzcz0idGl0bGUtcm93IiB4PSIwIiBkeT0iMWVtIiB4bWw6c3BhY2U9InByZXNlcnZlIj4rU3RyaW5nIE5hbWU8L3RzcGFuPjwvdGV4dD48dGV4dCB0cmFuc2Zvcm09InRyYW5zbGF0ZSggLTExNy4xNjQwNjI1LCAxMy41KSIgc3R5bGU9IiI+PHRzcGFuIGNsYXNzPSJ0aXRsZS1yb3ciIHg9IjAiIGR5PSIxZW0iIHhtbDpzcGFjZT0icHJlc2VydmUiPitTdHJpbmcgQ29tcGxpYW5jZUFyZWE8L3RzcGFuPjwvdGV4dD48dGV4dCB0cmFuc2Zvcm09InRyYW5zbGF0ZSggLTExNy4xNjQwNjI1LCA0OC41KSIgc3R5bGU9IiI+PHRzcGFuIGNsYXNzPSJ0aXRsZS1yb3ciIHg9IjAiIGR5PSIxZW0iIHhtbDpzcGFjZT0icHJlc2VydmUiPithdWRpdFByb2R1Y3QocHJvZHVjdElEOiBTdHJpbmcpPC90c3Bhbj48L3RleHQ+PC9nPjwvZz48L2c+PC9nPjwvZz48L3N2Zz4=;" vertex="1" parent="1">
                        <mxGeometry x="90" y="-350" width="240" height="1479" as="geometry"/>
                    </mxCell>
                </UserObject>
            </root>
        </mxGraphModel>
    </diagram>
</mxfile>